<svg width="203" height="46" viewBox="0 0 203 46" fill="none" xmlns="http://www.w3.org/2000/svg">
<path d="M56.3339 2.8002H65.6638L65.6638 21.3389L82.8696 2.8002H94.1383L76.8721 20.7936L94.9259 45.2091L83.7179 45.2091L70.5712 27.1553L65.6638 32.2442L65.6638 45.2091H56.3339L56.3339 2.79895V2.8002Z" fill="#231F20"/>
<path d="M89.9656 29.154V29.0333C89.9656 19.7034 97.4782 12.13 107.596 12.13C117.653 12.13 125.104 19.5818 125.104 28.9117V29.033C125.104 38.3629 117.592 45.9354 107.474 45.9354C97.4174 45.9354 89.9656 38.4836 89.9656 29.1537V29.154ZM116.017 29.154V29.0333C116.017 24.247 112.564 20.0668 107.474 20.0668C102.204 20.0668 99.0532 24.1258 99.0532 28.9122V29.0334C99.0532 33.8193 102.506 37.9995 107.596 37.9995C112.866 37.9995 116.017 33.9405 116.017 29.1541V29.154Z" fill="#231F20"/>
<path d="M127.647 36.0002V20.612H123.77V12.736H127.647L127.647 4.43591H136.856V12.736H144.489V20.612H136.856V34.4859C136.856 36.606 137.765 37.6363 139.825 37.6363C141.521 37.6363 143.036 37.2122 144.368 36.4848V43.8763C142.43 45.0274 140.188 45.7543 137.098 45.7543C131.464 45.7543 127.647 43.5125 127.647 36.0003L127.647 36.0002Z" fill="#231F20"/>
<path d="M147.135 0.982422H156.344L156.344 45.2073H147.135L147.135 0.982422H147.135Z" fill="#231F20"/>
<path d="M159.672 0.982422H169.366V9.16142H159.672L159.672 0.982422H159.672ZM159.915 12.7356H169.124L169.124 45.2086L159.915 45.2086L159.915 12.7356V12.7356Z" fill="#231F20"/>
<path d="M172.626 12.7356H181.834V17.34C183.955 14.6137 186.681 12.13 191.346 12.13C198.314 12.13 202.373 16.7344 202.373 24.1862V45.2086L193.164 45.2086V27.094C193.164 22.7323 191.104 20.4905 187.59 20.4905C184.076 20.4905 181.835 22.7323 181.835 27.094L181.835 45.2086H172.626L172.626 12.7356L172.626 12.7356Z" fill="#231F20"/>
<path d="M21.5626 2.77869L0.27417 25.1664V45.1781L21.5322 23.8848L42.6773 2.77869H21.5626Z" fill="url(#paint0_linear_18_203)"/>
<path d="M0.27417 45.1782L21.5322 23.8849L42.6773 45.1782H0.27417Z" fill="url(#paint1_linear_18_203)"/>
<path d="M0.27417 2.77881H21.563L0.27417 25.1665V2.77881Z" fill="url(#paint2_linear_18_203)"/>
<defs>
<linearGradient id="paint0_linear_18_203" x1="-4.53153" y1="39.4295" x2="29.4669" y2="5.43068" gradientUnits="userSpaceOnUse">
<stop offset="0.10753" stop-color="#C757BC"/>
<stop offset="0.21383" stop-color="#D0609A"/>
<stop offset="0.42537" stop-color="#E1725C"/>
<stop offset="0.60485" stop-color="#EE7E2F"/>
<stop offset="0.74303" stop-color="#F58613"/>
<stop offset="0.82323" stop-color="#F88909"/>
</linearGradient>
<linearGradient id="paint1_linear_18_203" x1="15.2292" y1="51.4092" x2="33.1397" y2="33.497" gradientUnits="userSpaceOnUse">
<stop offset="0.09677" stop-color="#0095D5"/>
<stop offset="0.30073" stop-color="#238AD9"/>
<stop offset="0.62106" stop-color="#557BDE"/>
<stop offset="0.86432" stop-color="#7472E2"/>
<stop offset="1" stop-color="#806EE3"/>
</linearGradient>
<linearGradient id="paint2_linear_18_203" x1="-1.67061" y1="15.9174" x2="13.9842" y2="0.262549" gradientUnits="userSpaceOnUse">
<stop offset="0.09677" stop-color="#0095D5"/>
<stop offset="0.30073" stop-color="#238AD9"/>
<stop offset="0.62106" stop-color="#557BDE"/>
<stop offset="0.86432" stop-color="#7472E2"/>
<stop offset="1" stop-color="#806EE3"/>
</linearGradient>
</defs>
</svg>
