<svg width="154" height="65" viewBox="0 0 154 65" fill="none" xmlns="http://www.w3.org/2000/svg">
<path d="M91.7929 22.2586C88.4386 22.2586 85.9407 23.9057 85.9407 27.8698C85.9407 30.8565 87.587 32.9297 91.6124 32.9297C95.0241 32.9297 97.3413 30.9195 97.3413 27.7465C97.3413 24.1506 95.2676 22.2589 91.7929 22.2589V22.2586ZM85.0844 50.2473C84.2907 51.2214 83.4997 52.2565 83.4997 53.478C83.4997 55.9149 86.6074 56.6483 90.8763 56.6483C94.4127 56.6483 99.2297 56.4007 99.2297 53.1128C99.2297 51.1585 96.9123 51.0375 93.9839 50.8539L85.0841 50.2473H85.0844ZM103.131 22.443C104.227 23.8458 105.387 25.7972 105.387 28.6018C105.387 35.3691 100.082 39.332 92.4021 39.332C90.4489 39.332 88.6807 39.0887 87.5844 38.7844L85.5717 42.0153L91.5461 42.3803C102.095 43.0523 108.312 43.3578 108.312 51.464C108.312 58.4774 102.155 62.438 91.5461 62.438C80.5109 62.438 76.3042 59.6331 76.3042 54.8171C76.3042 52.0723 77.5238 50.6124 79.6578 48.5973C77.6451 47.7465 76.9754 46.2231 76.9754 44.5762C76.9754 43.2339 77.6451 42.0148 78.7443 40.8556C79.8413 39.6983 81.0603 38.5383 82.5238 37.1974C79.5366 35.7344 77.2802 32.5638 77.2802 28.0515C77.2802 21.0409 81.9144 16.2261 91.2408 16.2261C93.8631 16.2261 95.4491 16.4674 96.8515 16.8355H108.741V22.0166L103.131 22.4435" fill="#413000"/>
<path d="M119.473 11.3635C115.997 11.3635 113.986 9.34976 113.986 5.87321C113.986 2.40102 115.997 0.509521 119.473 0.509521C123.01 0.509521 125.022 2.40102 125.022 5.87321C125.022 9.3497 123.01 11.3635 119.473 11.3635ZM111.607 48.0032V43.189L114.717 42.7635C115.571 42.6398 115.693 42.4584 115.693 41.5416V23.6169C115.693 22.9476 115.51 22.519 114.899 22.3375L111.607 21.1781L112.277 16.2414H124.899V41.5421C124.899 42.5194 124.958 42.6403 125.875 42.764L128.985 43.1895V48.0037H111.606" fill="#413000"/>
<path d="M153.094 45.6404C150.472 46.9192 146.631 48.0778 143.154 48.0778C135.899 48.0778 133.157 45.1541 133.157 38.2616V22.2889C133.157 21.9239 133.157 21.6789 132.667 21.6789H128.4V16.2529C133.767 15.6416 135.899 12.9584 136.57 6.31287H142.363V14.9734C142.363 15.3987 142.363 15.5829 142.851 15.5829H151.447V21.6788H142.363V36.2498C142.363 39.8475 143.218 41.2487 146.508 41.2487C148.217 41.2487 149.983 40.8231 151.447 40.2739L153.095 45.6408" fill="#413000"/>
<path d="M62.7561 29.6408L34.8768 1.76484C33.2727 0.159278 30.6688 0.159278 29.0627 1.76484L23.2739 7.55424L30.6168 14.8972C32.3239 14.3208 34.2805 14.7073 35.6406 16.0676C37.0077 17.4365 37.3914 19.4098 36.8006 21.1226L43.8779 28.1999C45.5901 27.6098 47.5656 27.991 48.9328 29.3607C50.8443 31.2715 50.8443 34.368 48.9328 36.2793C47.0211 38.1914 43.9247 38.1914 42.0119 36.2793C40.5746 34.841 40.2192 32.7292 40.9471 30.9584L34.3467 24.358L34.3462 41.7268C34.8122 41.9575 35.252 42.2654 35.6403 42.652C37.5512 44.5627 37.5512 47.6585 35.6403 49.5724C33.7289 51.483 30.6311 51.483 28.7216 49.5724C26.8104 47.6587 26.8104 44.5628 28.7216 42.652C29.1939 42.1805 29.7405 41.8237 30.3236 41.5845V24.0543C29.7402 23.8161 29.1943 23.4619 28.7213 22.9867C27.2737 21.5401 26.925 19.4155 27.6674 17.6378L20.4287 10.398L1.31417 29.512C-0.291898 31.1188 -0.291898 33.7226 1.31417 35.3283L29.1918 63.2042C30.7968 64.8098 33.3998 64.8098 35.007 63.2042L62.7558 35.46C64.3613 33.8536 64.3613 31.249 62.7558 29.6431" fill="#F05133"/>
</svg>
