<svg width="158" height="75" viewBox="0 0 158 75" fill="none" xmlns="http://www.w3.org/2000/svg">
<path d="M17.6215 57.4255C17.6215 57.4255 14.8129 59.1342 19.5765 59.6238C25.2986 60.3549 28.3662 60.2341 34.7145 59.0134C34.7145 59.0134 36.4232 60.1101 38.7438 60.9684C24.4593 67.072 6.39191 60.6029 17.623 57.4287L17.6215 57.4255ZM15.7904 49.4909C15.7904 49.4909 12.7386 51.8116 17.4991 52.2995C23.725 52.9099 28.6253 53.0307 37.0336 51.3236C37.0336 51.3236 38.1303 52.5443 39.9629 53.1546C22.7491 58.2822 3.45935 53.6426 15.7904 49.4925V49.4909ZM49.487 63.4083C49.487 63.4083 51.5628 65.1169 47.1664 66.46C38.987 68.9014 12.861 69.6342 5.53519 66.46C2.97138 65.3633 7.8558 63.7579 9.44208 63.5306C11.0315 63.1651 11.8835 63.1651 11.8835 63.1651C9.07651 61.21 -6.79586 67.1944 3.82492 68.8871C33.0027 73.6476 57.0528 66.8113 49.4838 63.394L49.487 63.4083ZM18.963 41.1892C18.963 41.1892 5.65598 44.3633 14.2009 45.4616C17.8631 45.9496 25.0665 45.8272 31.7804 45.3393C37.2736 44.8513 42.7683 43.8738 42.7683 43.8738C42.7683 43.8738 40.8133 44.7289 39.4718 45.5824C25.92 49.1222 -0.0835613 47.5375 7.36466 43.8738C13.713 40.822 18.963 41.1717 18.963 41.1717V41.1892ZM42.7699 54.4962C56.4425 47.4151 50.0942 40.5788 45.6993 41.4339C44.6026 41.6787 44.1098 41.9219 44.1098 41.9219C44.1098 41.9219 44.4754 41.1908 45.3305 40.946C53.9979 37.8942 60.8358 50.1013 42.522 54.8633C42.522 54.8633 42.6444 54.7409 42.7667 54.4977L42.7699 54.4962ZM20.3076 73.7843C33.4922 74.6394 53.6387 73.2963 54.125 67.0704C54.125 67.0704 53.1491 69.5118 43.2595 71.3429C32.0283 73.4187 18.111 73.1739 9.92846 71.8308C9.92846 71.8308 11.6371 73.2963 20.3076 73.7859V73.7843Z" fill="#4E7896"/>
<path d="M34.468 0.901001C34.468 0.901001 42.037 8.594 27.2646 20.1907C15.4231 29.5908 24.5625 34.9632 27.2646 41.0667C20.3059 34.8408 15.3007 29.3476 18.718 24.2184C23.7248 16.6494 37.5182 12.9873 34.4664 0.901001H34.468ZM30.5611 35.9391C34.1008 39.9684 29.5836 43.6321 29.5836 43.6321C29.5836 43.6321 38.6181 38.9909 34.4664 33.2529C30.6835 27.7597 27.7525 25.0735 43.6217 15.9166C43.6217 15.9166 18.594 22.1426 30.5595 35.9375L30.5611 35.9391Z" fill="#F58219"/>
<path d="M108.796 50.4318V31.8717C108.796 27.1351 106.145 23.918 99.5169 23.918C95.7292 23.918 92.5074 24.8653 89.6686 26.0002L90.6159 29.4096C92.6981 28.6514 95.3525 27.8949 98.1913 27.8949C101.79 27.8949 103.494 29.4096 103.494 32.4407V34.9044H101.615C92.5233 34.9044 88.3589 38.3138 88.3589 43.8054C88.3589 48.3512 91.1992 51.0024 96.3125 51.0024C99.5328 51.0024 101.995 49.4877 104.266 47.5931L104.644 50.4334H108.809L108.796 50.4318ZM103.491 44.3728C101.599 46.0767 99.5137 47.024 97.6191 47.024C95.1554 47.024 93.6422 45.5093 93.6422 42.8596C93.6422 40.21 95.157 38.3138 101.218 38.3138H103.491V44.3744V44.3728ZM126.595 50.4334H119.967L112.015 24.4886H117.697L122.621 40.3991L123.758 45.1357C126.221 38.317 128.113 31.3106 128.871 24.4934H134.552C133.037 33.0161 130.387 42.2954 126.598 50.4382L126.595 50.4334ZM157.275 50.4334V31.8717C157.275 27.1351 154.624 23.918 147.992 23.918C144.205 23.918 140.986 24.8653 138.144 26.0002L138.902 29.4096C141.175 28.6514 143.826 27.8949 146.667 27.8949C150.265 27.8949 151.969 29.4096 151.969 32.4407V34.9044H150.078C140.986 34.9044 136.822 38.3138 136.822 43.8054C136.822 48.3512 139.473 51.0024 144.586 51.0024C147.995 51.0024 150.458 49.4877 152.729 47.5931L153.107 50.4334H157.272H157.275ZM151.972 44.3728C150.081 46.0767 147.995 47.024 146.101 47.024C143.637 47.024 142.124 45.5093 142.124 42.8596C142.124 40.21 143.639 38.3138 149.699 38.3138H151.972V44.3744V44.3728ZM82.4683 54.7885C80.9536 57.0615 78.6806 58.7654 75.8403 59.7127L73.3766 56.6832C75.2712 55.5467 77.1643 53.8428 77.9224 52.3281C78.6806 51.0024 78.8698 49.1078 78.8698 44.7527V15.2062H84.5521V44.3728C84.5521 50.2443 83.9831 52.5156 82.4699 54.7885H82.4683Z" fill="#4E7896"/>
</svg>
