<svg width="100" height="87" viewBox="0 0 100 87" fill="none" xmlns="http://www.w3.org/2000/svg">
<path d="M7.80825 71.4358C4.41697 71.4358 0.92981 74.1367 0.92981 78.8641C0.92981 83.186 3.99583 86.2386 7.80825 86.2386C10.9552 86.2386 12.3578 84.1393 12.3578 84.1393V85.0544C12.3578 85.4869 12.7692 85.9695 13.2785 85.9695H15.5533V71.7588H12.3578V73.562C12.3578 73.562 10.9435 71.4358 7.80825 71.4358V71.4358ZM8.37748 74.3416C11.1692 74.3416 12.6336 76.7818 12.6336 78.8631C12.6336 81.1813 10.8949 83.383 8.38341 83.383C6.28393 83.383 4.18085 81.6931 4.18085 78.8325C4.18085 76.2503 5.99068 74.3416 8.37748 74.3416Z" fill="black"/>
<path d="M19.9946 85.9692C19.5036 85.9692 19.0739 85.6192 19.0739 85.0541V71.7586H22.2693V73.5171C22.9934 72.4354 24.4081 71.4313 26.5795 71.4313C30.1285 71.4313 32.0183 74.243 32.0183 76.8722V85.9692H29.7977C29.2154 85.9692 28.8228 85.4848 28.8228 85.0003V77.572C28.8228 76.1146 27.9244 74.3447 25.8465 74.3447C23.6044 74.3447 22.2694 76.4506 22.2694 78.4333V85.9692L19.9946 85.9692Z" fill="black"/>
<path d="M41.3336 71.4358C37.9423 71.4358 34.4552 74.1367 34.4552 78.8641C34.4552 83.186 37.5212 86.2386 41.3336 86.2386C44.4805 86.2386 45.8831 84.1393 45.8831 84.1393V85.0544C45.8831 85.4869 46.2946 85.9695 46.8038 85.9695H49.0786V64.6534H45.8831V73.562C45.8831 73.562 44.4688 71.4358 41.3336 71.4358V71.4358ZM41.9028 74.3416C44.6946 74.3416 46.159 76.7818 46.159 78.8631C46.159 81.1813 44.4203 83.383 41.9087 83.383C39.8093 83.383 37.7062 81.6931 37.7062 78.8325C37.7062 76.2503 39.516 74.3416 41.9028 74.3416Z" fill="black"/>
<path d="M53.5198 85.9693C53.0289 85.9693 52.5991 85.6193 52.5991 85.0542V71.7586H55.7946V74.1271C56.3446 72.8003 57.5315 71.5972 59.64 71.5972C60.2278 71.5972 60.7774 71.7048 60.7774 71.7048V74.9883C60.7774 74.9883 60.0911 74.7192 59.2609 74.7192C57.0188 74.7192 55.7946 76.8251 55.7946 78.8078V85.9693H53.5198Z" fill="black"/>
<path d="M80.1669 85.9692C79.676 85.9692 79.2462 85.6192 79.2462 85.0541V71.7585H82.4417V85.9692L80.1669 85.9692Z" fill="black"/>
<path d="M91.8114 71.4358C88.4202 71.4358 84.933 74.1367 84.933 78.8641C84.933 83.186 87.999 86.2386 91.8114 86.2386C94.9584 86.2386 96.3609 84.1393 96.3609 84.1393V85.0544C96.3609 85.4869 96.7724 85.9695 97.2817 85.9695H99.5564V64.6534H96.3609V73.562C96.3609 73.562 94.9466 71.4358 91.8114 71.4358V71.4358ZM92.3807 74.3416C95.1724 74.3416 96.6368 76.7818 96.6368 78.8631C96.6368 81.1813 94.8981 83.383 92.3866 83.383C90.2871 83.383 88.184 81.6931 88.184 78.8325C88.184 76.2503 89.9939 74.3416 92.3807 74.3416Z" fill="black"/>
<path d="M80.8215 68.6941C81.9884 68.6941 82.9344 67.7539 82.9344 66.5942C82.9344 65.4344 81.9884 64.4943 80.8215 64.4943C79.6546 64.4943 78.7086 65.4344 78.7086 66.5942C78.7086 67.7539 79.6546 68.6941 80.8215 68.6941Z" fill="black"/>
<path d="M69.205 71.431C65.6534 71.431 61.7515 74.0658 61.7515 78.8388C61.7515 83.1883 65.075 86.2391 69.1973 86.2391C74.2776 86.2391 76.7582 82.1801 76.7582 78.8664C76.7582 74.8001 73.5639 71.431 69.205 71.431ZM69.2166 74.3968C71.6727 74.3968 73.5047 76.3642 73.5047 78.8478C73.5047 81.3744 71.5599 83.3241 69.2239 83.3241C67.0555 83.3241 64.9476 81.5703 64.9476 78.8902C64.9476 76.1655 66.9524 74.3968 69.2166 74.3968Z" fill="black"/>
<path d="M74.3123 17.2293L82.4882 3.15332C82.9495 2.36422 82.6706 1.36183 81.8873 0.90329C81.1041 0.444761 80.0848 0.711343 79.6341 1.50045L71.351 15.7577C65.0313 12.8892 57.9176 11.2896 50.2675 11.2896C42.6174 11.2896 35.5037 12.8892 29.184 15.7577L20.9009 1.50045C20.4395 0.711343 19.4309 0.444761 18.6369 0.90329C17.843 1.36183 17.5747 2.36422 18.0361 3.15332L26.2119 17.2293C12.1134 24.8218 2.56414 39.0044 0.986938 55.6075H99.5482C97.9709 39.0043 88.4217 24.8216 74.3124 17.2293H74.3123ZM27.639 41.8516C25.3536 41.8516 23.5081 40.0068 23.5081 37.7461C23.5081 35.4747 25.3643 33.6406 27.639 33.6406C29.9244 33.6406 31.7698 35.4854 31.7698 37.7461C31.7806 40.0068 29.9244 41.8516 27.639 41.8516ZM72.8854 41.8516C70.6 41.8516 68.7545 40.0068 68.7545 37.7461C68.7545 35.4747 70.6107 33.6406 72.8854 33.6406C75.1708 33.6406 77.0162 35.4854 77.0162 37.7461C77.027 40.0068 75.1708 41.8516 72.8854 41.8516Z" fill="#32DE84"/>
</svg>
