<svg width="66" height="66" viewBox="0 0 66 66" fill="none" xmlns="http://www.w3.org/2000/svg">
<path d="M65.7432 33.151C65.7432 51.1003 51.1923 65.6511 33.2432 65.6511C15.294 65.6511 0.743164 51.1003 0.743164 33.151C0.743164 15.2016 15.294 0.650879 33.2432 0.650879C51.1923 0.650879 65.7432 15.2016 65.7432 33.151Z" fill="black"/>
<path d="M65.7432 33.151C65.7432 51.1003 51.1923 65.6511 33.2432 65.6511C15.294 65.6511 0.743164 51.1003 0.743164 33.151C0.743164 15.2016 15.294 0.650879 33.2432 0.650879C51.1923 0.650879 65.7432 15.2016 65.7432 33.151Z" fill="url(#paint0_radial_207_115)"/>
<path fill-rule="evenodd" clip-rule="evenodd" d="M43.082 36.1841C40.3757 38.8904 36.7052 40.4107 32.8776 40.4107V33.3528C34.8332 33.3528 36.7084 32.576 38.091 31.1934C39.4735 29.8107 40.2504 27.9355 40.2504 25.9802C40.2504 24.0248 39.4735 22.1495 38.091 20.7669C36.7084 19.3843 34.8332 18.6076 32.8776 18.6076V11.5496C36.7052 11.5496 40.3757 13.0699 43.082 15.7762C45.7884 18.4825 47.3083 22.1529 47.3083 25.9802C47.3083 29.8074 45.7884 33.4779 43.082 36.1841ZM32.8776 18.6043V11.5496H19.6997V18.6043H32.8776Z" fill="url(#paint1_linear_207_115)"/>
<path fill-rule="evenodd" clip-rule="evenodd" d="M18.8062 33.356C16.8582 33.356 15.2788 34.9352 15.2788 36.8833V53.9634C15.2788 54.3994 15.6321 54.7529 16.0678 54.7529H21.5438C21.9796 54.7529 22.3335 54.3994 22.3335 53.9634V41.9897C22.3335 41.1176 23.0401 40.4106 23.9122 40.4106H32.8778V33.356H18.8272C18.8234 33.356 18.8202 33.356 18.8164 33.356C18.8132 33.356 18.8094 33.356 18.8062 33.356Z" fill="white"/>
<path d="M31.8169 40.3935L26.9427 33.356H21.1997L25.1225 40.3935H31.8169Z" fill="url(#paint2_linear_207_115)"/>
<path d="M16.0538 18.3168C14.1346 15.4185 16.2129 11.5493 19.6891 11.5493L47.3157 53.7752C47.5904 54.1953 47.2888 54.7527 46.7866 54.7527H41.457C40.6622 54.7527 39.9211 54.3543 39.4821 53.6919L16.0538 18.3168Z" fill="white"/>
<path d="M54.9152 51.5775C54.9152 53.3312 53.4937 54.753 51.7399 54.753C49.9861 54.753 48.564 53.3312 48.564 51.5775C48.564 49.8238 49.9861 48.4021 51.7399 48.4021C53.4937 48.4021 54.9152 49.8238 54.9152 51.5775Z" fill="#9A68D8"/>
<defs>
<radialGradient id="paint0_radial_207_115" cx="0" cy="0" r="1" gradientUnits="userSpaceOnUse" gradientTransform="translate(17.3078 -28.2893) rotate(83.8408) scale(78.176)">
<stop stop-color="white"/>
<stop offset="1" stop-color="white" stop-opacity="0"/>
</radialGradient>
<linearGradient id="paint1_linear_207_115" x1="43.5765" y1="16.9523" x2="10.4366" y2="40.4106" gradientUnits="userSpaceOnUse">
<stop stop-color="#F9F9F9"/>
<stop offset="1" stop-color="#E2E2E2"/>
</linearGradient>
<linearGradient id="paint2_linear_207_115" x1="31.1895" y1="37.5017" x2="28.77" y2="39.0982" gradientUnits="userSpaceOnUse">
<stop/>
<stop offset="1" stop-opacity="0"/>
</linearGradient>
</defs>
</svg>
