<svg width="277" height="41" viewBox="0 0 277 41" fill="none" xmlns="http://www.w3.org/2000/svg">
<path d="M73.0589 3.44946C80.4131 3.44946 83.981 7.07353 83.981 12.8932C83.981 17.2596 82.0037 19.9168 77.943 20.9086C83.2699 21.7881 85.9022 24.6949 85.9022 29.7972C85.9022 35.5608 82.0037 39.5155 73.9384 39.5155H59.0616V3.44946H73.0589ZM64.0019 8.17135V18.925H72.3977C77.0635 18.925 78.9847 16.7855 78.9847 13.3112C78.9847 9.8368 76.9013 8.15264 72.3977 8.15264L64.0019 8.17135ZM64.0019 23.3226V34.5503H74.1006C78.8225 34.5503 80.962 32.8474 80.962 29.2234C80.962 25.381 78.9285 23.2976 73.9946 23.2976L64.0019 23.3226Z" fill="#253858"/>
<path d="M93.9736 1.52812C94.4142 1.49659 94.8564 1.56016 95.2703 1.71453C95.6842 1.86889 96.06 2.11043 96.3724 2.42278C96.6847 2.73513 96.9263 3.11099 97.0806 3.52487C97.235 3.93876 97.2986 4.38099 97.267 4.8216C97.267 5.69508 96.9201 6.53279 96.3024 7.15043C95.6848 7.76808 94.8471 8.11507 93.9736 8.11507C93.1001 8.11507 92.2624 7.76808 91.6447 7.15043C91.0271 6.53279 90.6801 5.69508 90.6801 4.8216C90.6486 4.38099 90.7121 3.93876 90.8665 3.52487C91.0209 3.11099 91.2624 2.73513 91.5748 2.42278C91.8871 2.11043 92.263 1.86889 92.6769 1.71453C93.0907 1.56016 93.533 1.49659 93.9736 1.52812ZM91.5596 12.0697H96.2815V39.5153H91.5596V12.0697Z" fill="#253858"/>
<path d="M114.308 34.8996C115.306 34.8698 116.299 34.7403 117.271 34.5129V39.0663C116.237 39.362 115.166 39.509 114.09 39.503C108.214 39.503 105.357 36.0473 105.357 30.9387V16.4549H100.91V12.0886H105.357V6.2439H109.942V12.0636H117.24V16.43H109.942V30.8389C109.942 33.2529 111.37 34.8996 114.308 34.8996Z" fill="#253858"/>
<path d="M136.733 40.0581C132.728 40.0581 129.653 38.2491 128 34.6812V39.5091H123.278V0.592529H128.031V17.0038C129.79 13.3797 133.084 11.5146 137.307 11.5146C144.605 11.5146 148.285 17.7148 148.285 25.7863C148.26 33.5273 144.417 40.0581 136.733 40.0581ZM136.015 15.9059C131.774 15.9059 128.031 18.5944 128.031 24.6885V26.8842C128.031 32.9783 131.487 35.6668 135.516 35.6668C140.843 35.6668 143.588 32.155 143.588 25.7863C143.538 19.1994 140.906 15.9059 136.015 15.9059Z" fill="#253858"/>
<path d="M153.2 12.0635H157.922V28.6618C157.922 33.602 159.899 35.7977 164.396 35.7977C168.763 35.7977 171.807 32.8909 171.807 27.3457V12.0635H176.529V39.5091H171.807V35.0055C170.966 36.5637 169.712 37.8597 168.182 38.7512C166.652 39.6426 164.906 40.0948 163.136 40.058C156.824 40.058 153.2 35.6916 153.2 28.1441V12.0635Z" fill="#253858"/>
<path d="M203.039 38.7979C201.392 39.6774 198.866 40.0454 196.339 40.0454C186.571 40.0454 181.993 34.1196 181.993 25.6988C181.993 17.409 186.546 11.4833 196.339 11.4833C198.596 11.4173 200.836 11.8786 202.883 12.8306V17.1969C200.932 16.287 198.796 15.8449 196.645 15.9057C189.509 15.9057 186.603 20.4031 186.603 25.73C186.603 31.057 189.565 35.5543 196.757 35.5543C198.879 35.6106 200.994 35.2766 202.995 34.5687L203.039 38.7979Z" fill="#253858"/>
<path d="M208.422 39.5091V0.592529H213.144V24.9193L224.945 12.076H231.096L218.19 25.5431L231.638 39.5091H225.213L213.137 26.6659V39.5091H208.422Z" fill="#253858"/>
<path d="M247.282 40.058C237.015 40.058 232.518 34.1322 232.518 25.7114C232.518 17.4216 237.127 11.4958 245.473 11.4958C253.925 11.4958 257.325 17.3717 257.325 25.7114V27.8509H237.29C237.951 32.5167 240.97 35.5357 247.444 35.5357C250.292 35.5351 253.116 35.0347 255.79 34.0574V38.4237C253.539 39.6214 250.083 40.058 247.282 40.058ZM237.24 23.8401H252.553C252.279 18.7377 249.971 15.8248 245.255 15.8248C240.252 15.7998 237.732 19.0372 237.24 23.8089V23.8401Z" fill="#253858"/>
<path d="M273.792 34.8996C274.79 34.8698 275.783 34.7403 276.755 34.5129V39.0663C275.721 39.362 274.65 39.509 273.574 39.503C267.698 39.503 264.841 36.0473 264.841 30.9387V16.4549H260.394V12.0886H264.841V6.2439H269.451V12.0636H276.749V16.43H269.451V30.8389C269.457 33.2529 270.873 34.8996 273.792 34.8996Z" fill="#253858"/>
<path d="M1.40705 4.49717C1.22499 4.49483 1.04462 4.53236 0.878602 4.60714C0.712589 4.68192 0.564956 4.79213 0.44607 4.93004C0.327184 5.06795 0.239927 5.2302 0.190424 5.40542C0.140922 5.58064 0.130374 5.76458 0.159521 5.94431L5.45528 38.0931C5.52126 38.4865 5.72375 38.8441 6.02718 39.103C6.33062 39.362 6.71559 39.5057 7.11449 39.509H32.5204C32.8194 39.5129 33.1099 39.4092 33.3388 39.2168C33.5678 39.0245 33.7201 38.7563 33.7679 38.4611L39.0637 5.95054C39.0928 5.77081 39.0823 5.58688 39.0328 5.41166C38.9833 5.23644 38.896 5.07418 38.7771 4.93628C38.6582 4.79837 38.5106 4.68815 38.3446 4.61338C38.1786 4.5386 37.9982 4.50106 37.8161 4.50341L1.40705 4.49717ZM23.7066 27.7324H15.5977L13.402 16.2614H25.6715L23.7066 27.7324Z" fill="#2684FF"/>
<path d="M37.3796 16.2617H25.6715L23.7067 27.7327H15.5977L6.02295 39.0977C6.32643 39.3601 6.71335 39.506 7.11454 39.5094H32.5267C32.8257 39.5132 33.1161 39.4095 33.3451 39.2172C33.5741 39.0249 33.7264 38.7567 33.7742 38.4615L37.3796 16.2617Z" fill="url(#paint0_linear_20_225)"/>
<defs>
<linearGradient id="paint0_linear_20_225" x1="40.0867" y1="19.4741" x2="20.7375" y2="34.5754" gradientUnits="userSpaceOnUse">
<stop offset="0.18" stop-color="#0052CC"/>
<stop offset="1" stop-color="#2684FF"/>
</linearGradient>
</defs>
</svg>
