<svg width="71" height="71" viewBox="0 0 71 71" fill="none" xmlns="http://www.w3.org/2000/svg">
<path d="M62.896 13.6891C58.6631 8.20781 52.8998 4.10493 46.335 1.89933C39.7702 -0.306276 32.6988 -0.515529 26.015 1.29803C19.3313 3.1116 13.3355 6.86651 8.78593 12.0879C4.23635 17.3093 1.33737 23.7626 0.455629 30.6316C-0.426114 37.5007 0.748986 44.4769 3.83231 50.6781C6.91564 56.8793 11.7687 62.0268 17.7777 65.4697C23.7867 68.9125 30.6817 70.4961 37.5908 70.02C44.4998 69.544 51.1125 67.0297 56.5925 62.7953C71.889 50.9739 74.7119 28.991 62.8949 13.6891H62.896Z" fill="#FF6C37"/>
<path d="M46.9934 22.3853L32.2298 37.266L28.0577 32.9768C42.5883 18.4463 44.0468 19.7593 46.9945 22.3853H46.9934Z" fill="white"/>
<path d="M32.2297 37.6733C32.099 37.6701 31.9741 37.6182 31.8796 37.5278L27.678 33.3262C27.5834 33.2282 27.5305 33.0974 27.5305 32.9613C27.5305 32.8251 27.5834 32.6943 27.678 32.5963C42.0039 18.2704 43.9592 18.9412 47.3434 22.0048C47.4583 22.0967 47.5229 22.2368 47.5185 22.3845C47.5404 22.5267 47.4857 22.6723 47.373 22.7642L32.6094 37.5289C32.5055 37.624 32.3709 37.6755 32.2297 37.6744V37.6733ZM28.7864 32.976L32.2297 36.4194L46.2351 22.414C45.7515 21.808 45.0615 21.4015 44.297 21.2723C43.5326 21.1432 42.7473 21.3003 42.0914 21.7138C39.553 22.8517 35.4685 26.3235 28.7864 32.976Z" fill="#FF6C37"/>
<path d="M36.461 41.3802L32.4344 37.2661L47.198 22.6765C51.1666 26.5575 45.2723 33.035 36.461 41.3791V41.3802Z" fill="white"/>
<path d="M36.4608 41.9054C36.3316 41.8951 36.2091 41.8441 36.1107 41.7598L31.9966 37.7333C31.9349 37.5837 31.9349 37.4157 31.9966 37.2661C31.9528 37.1435 31.9528 37.009 31.9966 36.8864L46.7602 22.1228C46.9736 21.9226 47.3051 21.9226 47.5184 22.1228C48.4868 23.0135 49.0175 24.2805 48.977 25.5946C48.977 29.5336 44.4832 34.4935 36.8394 41.7303C36.7373 41.8314 36.6029 41.8933 36.4597 41.9054H36.4608ZM33.1925 37.2661L36.4892 40.5617C42.3244 35.0471 47.8981 29.3575 47.9266 25.506C47.9583 24.6895 47.6884 23.8899 47.1683 23.2597L33.1925 37.2661Z" fill="#FF6C37"/>
<path d="M28.1736 33.0643L31.0917 35.9825C31.1103 35.9989 31.1252 36.0191 31.1355 36.0418C31.1457 36.0644 31.151 36.0889 31.151 36.1138C31.151 36.1386 31.1457 36.1632 31.1355 36.1858C31.1252 36.2085 31.1103 36.2287 31.0917 36.2451L24.9348 37.5581C24.6799 37.6128 24.4206 37.4902 24.298 37.2605C24.1755 37.0307 24.2214 36.7462 24.4096 36.5657L27.9985 33.0063C27.9985 33.0063 28.1156 33.0063 28.1736 33.0643Z" fill="white"/>
<path d="M24.7894 38.1414C24.5949 38.1389 24.4042 38.0866 24.2356 37.9895C24.0671 37.8924 23.9262 37.7537 23.8265 37.5866C23.5968 37.1522 23.6788 36.6172 24.0311 36.2736L27.5905 32.6847C27.7188 32.57 27.885 32.5066 28.0571 32.5066C28.2293 32.5066 28.3954 32.57 28.5238 32.6847L31.4419 35.6029C31.6148 35.767 31.6826 36.0154 31.617 36.2452C31.5513 36.4749 31.3588 36.6577 31.1213 36.7124L24.9645 38.0254L24.7894 38.1414ZM28.0577 33.7067L24.7609 37.0034L30.2176 35.8359L28.0577 33.7067Z" fill="#FF6C37"/>
<path d="M54.8429 14.1856C52.7311 12.1483 49.4136 12.0629 47.199 13.9854C44.9844 15.9078 44.6058 19.2078 46.3303 21.5822C48.0547 23.9565 51.3054 24.6218 53.822 23.114L49.8535 19.1455L54.8429 14.1856Z" fill="white"/>
<path d="M50.9038 24.4554C49.6906 24.4399 48.5087 24.0676 47.5055 23.3851C46.5023 22.7025 45.7222 21.7399 45.2623 20.6171C44.3213 18.3215 44.8421 15.6868 46.5753 13.923C47.7435 12.7762 49.315 12.1338 50.952 12.1338C52.5889 12.1338 54.1605 12.7762 55.3286 13.923C55.4402 14.0171 55.5037 14.156 55.5037 14.3026C55.5034 14.3748 55.4877 14.446 55.4574 14.5115C55.4272 14.577 55.3833 14.6353 55.3286 14.6823L50.6018 19.1465L54.1907 22.6774C54.2488 22.7329 54.2925 22.8018 54.3179 22.8781C54.3432 22.9544 54.3495 23.0358 54.3362 23.1151C54.3276 23.1915 54.3022 23.2652 54.2619 23.3308C54.2217 23.3964 54.1675 23.4524 54.1032 23.4947C53.139 24.0974 52.0306 24.4299 50.894 24.4576L50.9038 24.4554ZM50.9038 13.1341C48.8249 13.145 46.9648 14.3956 46.1847 16.3071C45.4045 18.2187 45.8291 20.419 47.2865 21.8874C48.7702 23.3787 51.0067 23.8077 52.9466 22.9673L49.5033 19.524C49.3884 19.4321 49.3238 19.292 49.3282 19.1443C49.3326 19.0075 49.3961 18.8795 49.5033 18.7942L54.055 14.2129C53.1501 13.5192 52.0439 13.1406 50.9038 13.133V13.1341Z" fill="#FF6C37"/>
<path d="M54.9304 14.2734L49.941 19.2333L53.9096 23.2018C54.309 22.9725 54.6809 22.6983 55.018 22.3845C57.18 20.0867 57.1407 16.511 54.9304 14.2734Z" fill="white"/>
<path d="M53.8209 23.6391C53.7553 23.6426 53.6898 23.6314 53.6292 23.6062C53.5686 23.581 53.5144 23.5425 53.4707 23.4935L49.5022 19.525C49.3873 19.4331 49.3227 19.293 49.3271 19.1453C49.3315 19.0086 49.395 18.8805 49.5022 18.7952L54.462 13.9229C54.5099 13.8506 54.575 13.7914 54.6514 13.7504C54.7277 13.7094 54.813 13.688 54.8997 13.688C54.9864 13.688 55.0717 13.7094 55.1481 13.7504C55.2244 13.7914 55.2895 13.8506 55.3374 13.9229C55.9196 14.4934 56.3822 15.1743 56.698 15.9259C57.0138 16.6774 57.1765 17.4844 57.1765 18.2995C57.1765 19.1147 57.0138 19.9217 56.698 20.6732C56.3822 21.4247 55.9196 22.1057 55.3374 22.6762C54.9939 23.0405 54.6009 23.3547 54.1699 23.6095C54.0614 23.6642 53.9359 23.6748 53.8198 23.6391H53.8209ZM50.6117 19.1464L53.9084 22.4431C54.1352 22.2842 54.3499 22.1087 54.5507 21.9179C55.5198 20.9515 56.0656 19.6398 56.0683 18.2711C56.0705 17.0462 55.6241 15.8629 54.8133 14.9448L50.6117 19.1464Z" fill="#FF6C37"/>
<path d="M47.6061 22.9981C46.7855 22.2278 45.5086 22.2278 44.688 22.9981L31.4716 36.185L33.6599 38.4029L47.6357 26.1482C48.0679 25.7357 48.3097 25.1635 48.3031 24.5661C48.2966 23.9687 48.0449 23.4008 47.6061 22.997V22.9981Z" fill="white"/>
<path d="M33.5428 38.9291C33.412 38.9259 33.2871 38.874 33.1926 38.7836L30.9747 36.5657C30.8801 36.4678 30.8273 36.337 30.8273 36.2008C30.8273 36.0647 30.8801 35.9338 30.9747 35.8359L44.1923 22.6764C45.2405 21.6303 46.9386 21.6303 47.9858 22.6764C48.511 23.2016 48.7954 23.9182 48.7735 24.6601C48.7429 25.3976 48.4168 26.0913 47.8687 26.5858L33.8929 38.8405C33.7911 38.9127 33.6664 38.9433 33.5428 38.928V38.9291ZM31.9967 36.1849L33.4552 37.673L47.1684 25.7389C47.5076 25.4435 47.71 25.0212 47.7231 24.5715C47.7363 24.1218 47.559 23.6819 47.2275 23.3755C46.5896 22.7409 45.56 22.7409 44.9221 23.3755L31.9967 36.1849Z" fill="#FF6C37"/>
<path d="M21.2301 51.2122C21.1928 51.263 21.1726 51.3243 21.1726 51.3873C21.1726 51.4503 21.1928 51.5116 21.2301 51.5624L21.8133 54.1008C21.8636 54.4039 21.7181 54.7059 21.45 54.8668C21.32 54.9428 21.1692 54.9756 21.0194 54.9605C20.8696 54.9453 20.7284 54.883 20.6163 54.7825L16.6193 50.931L29.0785 38.3733H33.3972L36.3154 41.2914C31.7633 45.2714 26.6877 48.6093 21.2301 51.2122Z" fill="white"/>
<path d="M20.9675 55.5016C20.6371 55.495 20.311 55.3593 20.0922 55.1219L16.2702 51.3C16.1554 51.2081 16.0908 51.068 16.0952 50.9203C16.0996 50.7835 16.163 50.6555 16.2702 50.5702L28.816 37.9949C28.8862 37.9202 28.978 37.8694 29.0786 37.8494H33.4257C33.539 37.8093 33.6625 37.8093 33.7758 37.8494L36.694 40.7675C36.8067 40.8715 36.8614 41.0246 36.8395 41.1756C36.8415 41.2481 36.8268 41.3201 36.7964 41.386C36.7661 41.4519 36.7209 41.5098 36.6644 41.5553L36.4314 41.7599C31.8609 45.5702 26.8326 48.7948 21.4632 51.359L22.0179 53.7224C22.0608 53.9048 22.0624 54.0944 22.0227 54.2774C21.983 54.4604 21.9029 54.6323 21.7883 54.7804C21.6737 54.9286 21.5275 55.0493 21.3603 55.1337C21.1931 55.2181 21.0092 55.2642 20.822 55.2685L20.9675 55.5016ZM17.4082 50.9203L20.8504 54.3921C20.8825 54.4207 20.924 54.4365 20.967 54.4365C21.0099 54.4365 21.0514 54.4207 21.0835 54.3921C21.1049 54.3623 21.1165 54.3265 21.1165 54.2898C21.1165 54.2531 21.1049 54.2173 21.0835 54.1875L20.5003 51.649C20.4062 51.2737 20.5878 50.8831 20.938 50.7157C26.1631 48.1857 31.0618 45.0307 35.5265 41.3201L33.1335 38.9271H29.2241L17.4082 50.9203Z" fill="#FF6C37"/>
<path d="M13.6146 53.926L16.5328 51.0078L21.0265 55.5016L13.8783 55.0059C13.6266 54.9873 13.4133 54.8089 13.3531 54.5617C13.2929 54.3144 13.3991 54.0583 13.6157 53.927L13.6146 53.926Z" fill="white"/>
<path d="M21.1131 55.9393L13.9933 55.4436C13.571 55.4042 13.2077 55.1154 13.0589 54.7291C12.9101 54.3429 13.0009 53.8844 13.2931 53.5759L16.2112 50.6577C16.3091 50.5631 16.4399 50.5103 16.5761 50.5103C16.7123 50.5103 16.8431 50.5631 16.941 50.6577L21.4052 55.1219C21.5321 55.297 21.5321 55.5311 21.4052 55.7051C21.3374 55.8145 21.2345 55.8966 21.1131 55.9382V55.9393ZM13.9933 54.3057L19.8285 54.6854L16.6193 51.6797L13.9933 54.3057Z" fill="#FF6C37"/>
<path d="M33.8054 38.7255L27.9111 39.6303L31.3249 36.2461L33.8054 38.7255Z" fill="white"/>
<path d="M27.9111 40.183C27.7109 40.1884 27.5282 40.0735 27.4439 39.8908C27.3818 39.8063 27.3483 39.7041 27.3483 39.5992C27.3483 39.4943 27.3818 39.3922 27.4439 39.3076L30.8282 35.8938C31.0415 35.6936 31.3731 35.6936 31.5864 35.8938L34.068 38.3732C34.1176 38.4518 34.1439 38.5429 34.1439 38.6358C34.1439 38.7287 34.1176 38.8198 34.068 38.8984C34.0436 38.9942 33.9922 39.081 33.9198 39.1483C33.8474 39.2157 33.7572 39.2607 33.6599 39.2781L27.8247 40.183H27.9111ZM31.3249 37.0022L29.4287 38.8984L32.697 38.4028L31.3249 37.0022Z" fill="#FF6C37"/>
<path d="M33.8054 38.7234L29.6914 39.2486C29.5813 39.2736 29.4661 39.2624 29.3628 39.2168C29.2595 39.1711 29.1737 39.0934 29.1181 38.9952C29.0625 38.897 29.04 38.7834 29.054 38.6714C29.0679 38.5594 29.1177 38.4548 29.1957 38.3733L31.3261 36.2429L33.8054 38.7234Z" fill="white"/>
<path d="M29.5741 39.8043C29.1857 39.801 28.8301 39.5888 28.6408 39.2496C28.5294 39.0499 28.4862 38.8192 28.5178 38.5927C28.5494 38.3662 28.654 38.1562 28.8159 37.9946L30.9462 35.8642C31.1596 35.664 31.4911 35.664 31.7045 35.8642L34.1849 38.3447C34.2587 38.4146 34.3106 38.5044 34.3344 38.6032C34.3581 38.702 34.3527 38.8056 34.3188 38.9013C34.2848 38.9971 34.2238 39.081 34.1432 39.1428C34.0625 39.2046 33.9657 39.2417 33.8643 39.2496L29.7798 39.7748L29.5741 39.8043ZM29.5741 38.7244L32.6673 38.3447L31.2963 36.9737L29.5457 38.7244H29.5741ZM54.9588 17.6289C54.9038 17.5368 54.817 17.4681 54.7147 17.4358C54.6124 17.4035 54.5019 17.4099 54.404 17.4538C54.3557 17.4783 54.3128 17.5122 54.2779 17.5535C54.2429 17.5949 54.2166 17.6428 54.2005 17.6945C54.1677 17.7984 54.1786 17.9111 54.229 18.0085C54.4336 18.4385 54.3767 18.9473 54.0834 19.3215C54.0069 19.3937 53.974 19.4933 53.974 19.5983C53.9751 19.701 54.0141 19.7996 54.0834 19.8752C54.1583 19.9047 54.2416 19.9047 54.3165 19.8752C54.3844 19.8923 54.4558 19.8904 54.5227 19.8697C54.5897 19.8491 54.6497 19.8105 54.6962 19.7581C54.9364 19.4639 55.0886 19.1078 55.1351 18.7308C55.1815 18.3539 55.1204 17.9715 54.9588 17.6278V17.6289Z" fill="#FF6C37"/>
</svg>
