<svg width="243" height="69" viewBox="0 0 243 69" fill="none" xmlns="http://www.w3.org/2000/svg">
<path opacity="0.54" d="M72.9742 52.5804H68.4431V17.2598H89.0216V21.5993H72.9748V33.1955H87.4489V37.4348H72.9748V52.5804L72.9742 52.5804ZM97.5415 22.3431C96.4613 23.43 94.7652 23.6007 93.4908 22.7509C92.2164 21.901 91.7189 20.2673 92.3029 18.8495C92.8869 17.4316 94.3892 16.6246 95.8909 16.9223C97.3927 17.2199 98.4753 18.5394 98.4763 20.0731C98.4909 20.9274 98.151 21.7494 97.5378 22.3431H97.5416H97.5415ZM97.5415 52.5804H93.0104V28.4091H97.5415V52.5805V52.5804ZM107.485 52.5804H102.953V28.4091H107.285V32.3555H107.481C108.004 30.9648 109.009 29.809 110.312 29.0989C111.556 28.2986 112.995 27.8548 114.474 27.8156C115.634 27.7826 116.789 27.9844 117.87 28.4091L116.147 32.6483C115.37 32.3892 114.553 32.2717 113.735 32.3015C112.074 32.3099 110.492 33.0175 109.377 34.2515C108.113 35.5515 107.481 37.2537 107.481 39.3578L107.485 52.5804L107.485 52.5804ZM130.286 53.3512C126.642 53.3512 123.681 52.1346 121.401 49.7019C119.121 47.2692 117.98 44.1999 117.978 40.495C117.911 37.1593 119.097 33.9202 121.301 31.4192C123.412 28.9299 126.535 27.5328 129.794 27.6188C133.371 27.6188 136.235 28.7866 138.387 31.122C140.538 33.4574 141.613 36.5816 141.61 40.4946L141.56 41.3347H122.501C122.631 43.7677 123.444 45.6947 124.939 47.1155C126.337 48.4904 128.223 49.2529 130.181 49.2352C133.43 49.2352 135.629 47.8537 136.778 45.0923L140.817 46.7687C139.998 48.6798 138.648 50.3147 136.928 51.4781C135.12 52.7267 132.906 53.3511 130.285 53.3511L130.286 53.3512ZM136.787 37.5504C136.689 36.1681 136.057 34.8527 134.891 33.604C133.724 32.3553 131.989 31.7439 129.686 31.7696C128.089 31.7415 126.538 32.3041 125.328 33.3497C124.061 34.4621 123.175 35.9448 122.793 37.5889L136.787 37.5503L136.787 37.5504ZM157.981 53.3512C156.266 53.3852 154.571 52.9877 153.05 52.195C151.714 51.5199 150.583 50.4977 149.776 49.2353H149.58V52.5804H145.245V17.2598H149.776V28.4091L149.58 31.7619H149.776C150.583 30.4995 151.714 29.4773 153.05 28.8022C154.569 28.0003 156.264 27.5935 157.981 27.6191C161.099 27.6191 163.791 28.8523 166.058 31.3188C168.325 33.7852 169.457 36.8439 169.455 40.4948C169.452 44.1456 168.323 47.2043 166.058 49.6708C163.794 52.1373 161.102 53.3641 157.981 53.3512L157.981 53.3512ZM157.242 49.2082C159.306 49.2247 161.278 48.3533 162.658 46.815C164.168 45.2195 164.923 43.1063 164.923 40.4754C164.923 37.8444 164.168 35.7314 162.658 34.1358C161.262 32.6159 159.297 31.7492 157.236 31.7447C155.174 31.7403 153.205 32.5988 151.803 34.1126C150.311 35.6901 149.565 37.811 149.565 40.4753C149.565 43.1396 150.318 45.2669 151.826 46.8573C153.214 48.3898 155.192 49.2526 157.257 49.2274L157.242 49.2081L157.242 49.2082ZM180.99 53.3512C178.426 53.3512 176.285 52.6112 174.567 51.1314C172.849 49.6516 171.987 47.695 171.982 45.2619C171.982 42.631 173 40.568 175.036 39.0726C177.072 37.5773 179.582 36.8297 182.567 36.8297C185.226 36.8297 187.407 37.323 189.106 38.3096V37.6198C189.171 35.9951 188.501 34.4277 187.283 33.3535C186.042 32.2831 184.446 31.7178 182.81 31.7696C181.557 31.754 180.324 32.0771 179.24 32.7061C178.225 33.2696 177.446 34.1808 177.048 35.2728L172.913 33.4961C173.472 32.0445 174.572 30.6982 176.218 29.4573C177.864 28.2164 180.026 27.5997 182.719 27.6074C185.796 27.6074 188.36 28.5067 190.412 30.3051C192.463 32.1035 193.481 34.6522 193.466 37.9512V52.5804H189.119V49.2276H188.923C187.115 51.9766 184.473 53.346 180.995 53.346L180.99 53.3512ZM181.729 49.2082C183.633 49.2016 185.46 48.4572 186.829 47.131C188.288 45.8989 189.132 44.0865 189.137 42.1749C187.855 41.1215 185.932 40.5948 183.367 40.5948C181.167 40.5948 179.509 41.0714 178.394 42.0245C177.353 42.8263 176.736 44.062 176.721 45.3774C176.699 46.5221 177.285 47.593 178.26 48.1907C179.284 48.8809 180.494 49.2425 181.729 49.2274V49.2081L181.729 49.2082ZM206.788 53.3512C204.096 53.3512 201.872 52.6934 200.119 51.378C198.412 50.1152 197.082 48.4096 196.272 46.445L200.311 44.7686C201.593 47.7952 203.773 49.3085 206.85 49.3085C208.072 49.3586 209.281 49.0318 210.312 48.372C211.162 47.8431 211.675 46.9081 211.666 45.9055C211.666 44.328 210.566 43.2592 208.36 42.6991L203.487 41.5159C201.883 41.0909 200.389 40.326 199.106 39.273C197.74 38.2056 196.969 36.5447 197.036 34.8103C197.036 32.6728 197.98 30.9384 199.867 29.6075C201.842 28.2497 204.193 27.551 206.587 27.6112C208.586 27.5792 210.557 28.0835 212.295 29.0718C213.936 30.0055 215.206 31.4784 215.888 33.2417L211.953 34.8526C211.068 32.7152 209.23 31.6462 206.437 31.6462C205.249 31.6065 204.074 31.8974 203.041 32.4863C202.194 32.9256 201.663 33.8012 201.664 34.7563C201.664 36.1385 202.73 37.0763 204.864 37.5696L209.637 38.7064C211.901 39.2203 213.576 40.1195 214.661 41.4041C215.711 42.6042 216.289 44.1473 216.284 45.7436C216.305 47.8718 215.319 49.8844 213.626 51.1698C211.854 52.624 209.573 53.3511 206.783 53.3511L206.788 53.3512ZM231.159 53.3512C227.515 53.3512 224.554 52.1346 222.274 49.7019C219.994 47.2692 218.853 44.1931 218.851 40.4754C218.784 37.1397 219.97 33.9006 222.174 31.3996C224.293 28.9166 227.419 27.5269 230.678 27.619C234.268 27.619 237.133 28.7868 239.271 31.1222C241.41 33.4576 242.484 36.5818 242.495 40.4947L242.445 41.3349H223.37C223.5 43.7679 224.313 45.6949 225.808 47.1157C227.21 48.4906 229.101 49.2505 231.063 49.2275C234.312 49.2275 236.51 47.846 237.659 45.0846L241.698 46.761C240.88 48.6723 239.53 50.3071 237.809 51.4704C236.002 52.7242 233.785 53.3511 231.159 53.3511L231.159 53.3512ZM237.66 37.5504C237.562 36.1681 236.93 34.8527 235.764 33.604C234.597 32.3553 232.865 31.7439 230.567 31.7696C228.97 31.7419 227.419 32.3044 226.209 33.3497C224.942 34.4621 224.055 35.9448 223.674 37.5889L237.66 37.5503V37.5504Z" fill="black"/>
<path d="M0.699097 55.2919L9.03095 1.477C9.1328 0.817007 9.64132 0.29673 10.2937 0.184855C10.9461 0.07298 11.5963 0.394843 11.9082 0.983882L20.5248 17.2059L23.9594 10.6053C24.2253 10.0949 24.7497 9.77532 25.3211 9.77532C25.8925 9.77532 26.4168 10.0949 26.6828 10.6053L49.9359 55.2918H0.699097V55.2919Z" fill="#FFA000"/>
<path d="M29.4835 34.3287L20.5208 17.198L0.699097 55.2916L29.4835 34.3287Z" fill="#F57C00"/>
<path d="M49.9362 55.2917L43.5546 15.4314C43.4582 14.859 43.0535 14.3888 42.5054 14.2116C41.9573 14.0343 41.3575 14.1818 40.9505 14.5922L0.699097 55.2911L22.9712 67.8984C24.3698 68.6867 26.0731 68.6867 27.4717 67.8984L49.9362 55.2911V55.2917Z" fill="#FFCA28"/>
<path d="M43.5545 15.4317C43.4581 14.8593 43.0534 14.389 42.5053 14.2118C41.9572 14.0345 41.3574 14.1821 40.9503 14.5925L32.9614 22.6769L26.6792 10.6051C26.4133 10.0947 25.8889 9.77515 25.3175 9.77515C24.7461 9.77515 24.2218 10.0947 23.9558 10.6051L20.5212 17.2058L11.9042 0.983975C11.5918 0.394779 10.9409 0.0734373 10.2877 0.186147C9.63448 0.298856 9.12767 0.820437 9.02696 1.48095L0.698976 55.292H0.672119L0.698976 55.323L0.918219 55.4317L40.9387 14.989C41.3455 14.5764 41.9469 14.4281 42.4964 14.6048C43.0459 14.7815 43.4514 15.2536 43.5468 15.8277L49.8745 55.3307L49.9361 55.2918L43.5546 15.4316L43.5545 15.4317ZM0.772057 55.2182L9.03083 1.86151C9.13144 1.201 9.63944 0.67942 10.2921 0.56671C10.9447 0.454001 11.5956 0.775238 11.9086 1.36454L20.5247 17.5866L23.9592 10.9859C24.2252 10.4755 24.7496 10.156 25.321 10.156C25.8923 10.156 26.4167 10.4755 26.6827 10.9859L32.8374 22.8011L0.771696 55.2182H0.772057Z" fill="white" fill-opacity="0.2"/>
<path opacity="0.2" d="M27.4718 67.5184C26.0732 68.3066 24.3699 68.3066 22.9712 67.5184L0.752965 54.9461L0.699097 55.2918L22.9712 67.8952C24.3698 68.6834 26.0731 68.6834 27.4717 67.8952L49.9362 55.2918L49.8785 54.9346L27.4718 67.5186V67.5184Z" fill="#A52714"/>
<path d="M43.4907 15.4397C43.3946 14.8674 42.9912 14.397 42.4451 14.2208C41.899 14.0446 41.3012 14.1911 40.8956 14.6014L32.9341 22.6817L26.6745 10.6155C26.4093 10.1054 25.8868 9.78591 25.3175 9.78591C24.7482 9.78591 24.2257 10.1054 23.9606 10.6155L20.5376 17.2134L11.9512 0.998279C11.6398 0.409344 10.9912 0.088055 10.3408 0.200816C9.69048 0.313578 9.18424 0.834742 9.08399 1.4951L0.785034 55.2825L22.9793 67.8804C24.373 68.6683 26.0704 68.6683 27.4641 67.8804L49.85 55.2825L43.4907 15.4396V15.4397Z" fill="url(#paint0_linear_20_392)"/>
<defs>
<linearGradient id="paint0_linear_20_392" x1="-0.927333" y1="11.8019" x2="60.549" y2="43.9285" gradientUnits="userSpaceOnUse">
<stop stop-color="white" stop-opacity="0.1"/>
<stop offset="0.14" stop-color="white" stop-opacity="0.08"/>
<stop offset="0.61" stop-color="white" stop-opacity="0.02"/>
<stop offset="1" stop-color="white" stop-opacity="0"/>
</linearGradient>
</defs>
</svg>
