<svg width="238" height="61" viewBox="0 0 238 61" fill="none" xmlns="http://www.w3.org/2000/svg">
<path d="M76.7201 48.1966L79.6819 41.3176C82.8825 43.7061 87.1341 44.9482 91.3379 44.9482C94.443 44.9482 96.4016 43.7539 96.4016 41.9386C96.3539 36.8749 77.8188 40.8399 77.6755 28.1329C77.6277 21.6839 83.3602 16.7157 91.4812 16.7157C96.3061 16.7157 101.131 17.91 104.57 20.6329L101.8 27.6552C98.6468 25.6488 94.7296 24.2157 91.0035 24.2157C88.4717 24.2157 86.7997 25.41 86.7997 26.9386C86.8475 31.9068 105.526 29.1839 105.717 41.3176C105.717 47.91 100.128 52.5437 92.1023 52.5437C86.2265 52.5437 80.8284 51.1584 76.7201 48.1966Z" fill="black"/>
<path d="M190.367 38.8335C188.886 41.4131 186.115 43.1807 182.915 43.1807C178.185 43.1807 174.364 39.359 174.364 34.6297C174.364 29.9004 178.185 26.0788 182.915 26.0788C186.115 26.0788 188.886 27.8463 190.367 30.4259L198.536 25.8877C195.478 20.4418 189.602 16.7157 182.915 16.7157C173.026 16.7157 165 24.7412 165 34.6297C165 44.5182 173.026 52.5437 182.915 52.5437C189.65 52.5437 195.478 48.8654 198.536 43.3717L190.367 38.8335Z" fill="black"/>
<path d="M120.048 1.85913H109.825V51.8751H120.048V1.85913Z" fill="black"/>
<path d="M202.548 1.85913V51.8751H212.771V36.8751L224.905 51.8751H237.994L222.564 34.0566L236.848 17.4324H224.332L212.771 31.2381V1.85913H202.548Z" fill="black"/>
<path d="M150.43 38.9291C148.949 41.3654 145.892 43.1807 142.453 43.1807C137.723 43.1807 133.902 39.359 133.902 34.6297C133.902 29.9004 137.723 26.0788 142.453 26.0788C145.892 26.0788 148.949 27.9896 150.43 30.4737V38.9291ZM150.43 17.4323V21.4928C148.758 18.6743 144.602 16.7157 140.255 16.7157C131.274 16.7157 124.204 24.6456 124.204 34.5819C124.204 44.5182 131.274 52.5437 140.255 52.5437C144.602 52.5437 148.758 50.5851 150.43 47.7667V51.8272H160.653V17.4323H150.43Z" fill="black"/>
<path d="M13.5194 38.8813C13.5194 42.3686 10.701 45.187 7.21369 45.187C3.72643 45.187 0.907959 42.3686 0.907959 38.8813C0.907959 35.394 3.72643 32.5756 7.21369 32.5756H13.5194V38.8813Z" fill="#E01E5A"/>
<path d="M16.6722 38.8813C16.6722 35.394 19.4907 32.5756 22.978 32.5756C26.4652 32.5756 29.2837 35.394 29.2837 38.8813V54.6456C29.2837 58.1329 26.4652 60.9514 22.978 60.9514C19.4907 60.9514 16.6722 58.1329 16.6722 54.6456V38.8813Z" fill="#E01E5A"/>
<path d="M22.978 13.5629C19.4907 13.5629 16.6722 10.7444 16.6722 7.25715C16.6722 3.76989 19.4907 0.951416 22.978 0.951416C26.4652 0.951416 29.2837 3.76989 29.2837 7.25715V13.5629H22.978Z" fill="#36C5F0"/>
<path d="M22.9781 16.7634C26.4653 16.7634 29.2838 19.5819 29.2838 23.0692C29.2838 26.5564 26.4653 29.3749 22.9781 29.3749H7.16596C3.6787 29.3749 0.860229 26.5564 0.860229 23.0692C0.860229 19.5819 3.6787 16.7634 7.16596 16.7634H22.9781Z" fill="#36C5F0"/>
<path d="M48.2488 23.0692C48.2488 19.5819 51.0673 16.7634 54.5545 16.7634C58.0418 16.7634 60.8602 19.5819 60.8602 23.0692C60.8602 26.5564 58.0418 29.3749 54.5545 29.3749H48.2488V23.0692Z" fill="#2EB67D"/>
<path d="M45.0958 23.0692C45.0958 26.5565 42.2774 29.375 38.7901 29.375C35.3029 29.375 32.4844 26.5565 32.4844 23.0692V7.25715C32.4844 3.76989 35.3029 0.951416 38.7901 0.951416C42.2774 0.951416 45.0958 3.76989 45.0958 7.25715V23.0692Z" fill="#2EB67D"/>
<path d="M38.7901 48.34C42.2774 48.34 45.0958 51.1584 45.0958 54.6457C45.0958 58.133 42.2774 60.9514 38.7901 60.9514C35.3029 60.9514 32.4844 58.133 32.4844 54.6457V48.34H38.7901Z" fill="#ECB22E"/>
<path d="M38.7901 45.187C35.3029 45.187 32.4844 42.3686 32.4844 38.8813C32.4844 35.394 35.3029 32.5756 38.7901 32.5756H54.6022C58.0895 32.5756 60.9079 35.394 60.9079 38.8813C60.9079 42.3686 58.0895 45.187 54.6022 45.187H38.7901Z" fill="#ECB22E"/>
</svg>
