<svg width="48" height="72" viewBox="0 0 48 72" fill="none" xmlns="http://www.w3.org/2000/svg">
<path d="M12.1327 71.4781C18.6517 71.4781 23.9424 66.1934 23.9424 59.6819V47.8857H12.1327C5.61375 47.8857 0.322998 53.1704 0.322998 59.6819C0.322998 66.1934 5.61375 71.4781 12.1327 71.4781Z" fill="#0ACF83"/>
<path d="M0.322998 36.0896C0.322998 29.5781 5.61375 24.2935 12.1327 24.2935H23.9424V47.8857H12.1327C5.61375 47.8857 0.322998 42.6011 0.322998 36.0896Z" fill="#A259FF"/>
<path d="M0.323364 12.4978C0.323364 5.98633 5.61412 0.70166 12.1331 0.70166H23.9428V24.294H12.1331C5.61412 24.294 0.323364 19.0093 0.323364 12.4978Z" fill="#F24E1E"/>
<path d="M23.9425 0.701172H35.7522C42.2712 0.701172 47.562 5.98584 47.562 12.4973C47.562 19.0088 42.2712 24.2935 35.7522 24.2935H23.9425V0.701172Z" fill="#FF7262"/>
<path d="M47.562 36.0896C47.562 42.6011 42.2712 47.8857 35.7522 47.8857C29.2333 47.8857 23.9425 42.6011 23.9425 36.0896C23.9425 29.5781 29.2333 24.2935 35.7522 24.2935C42.2712 24.2935 47.562 29.5781 47.562 36.0896Z" fill="#1ABCFE"/>
</svg>
