<svg width="180" height="49" viewBox="0 0 180 49" fill="none" xmlns="http://www.w3.org/2000/svg">
<path d="M34.7385 20.8472H19.7216C19.5355 20.8473 19.3569 20.9213 19.2253 21.053C19.0937 21.1846 19.0198 21.3632 19.0198 21.5493V28.8911C19.0198 29.2788 19.3342 29.5936 19.7216 29.5936H25.5797V38.7159C25.5797 38.7159 24.2643 39.1639 20.6277 39.1639C16.3373 39.1639 10.3441 37.5966 10.3441 24.4172C10.3441 11.2348 16.5851 9.50044 22.444 9.50044C27.5158 9.50044 29.7008 10.3935 31.091 10.8237C31.5279 10.9569 31.932 10.5223 31.932 10.1349L33.6073 3.04099C33.6073 2.8594 33.5459 2.64097 33.3393 2.49288C32.7748 2.08988 29.3302 0.162354 20.6277 0.162354C10.6031 0.162354 0.319458 4.42785 0.319458 24.9311C0.319458 45.4347 12.093 48.4901 22.0146 48.4901C30.2292 48.4901 35.2125 44.9796 35.2125 44.9796C35.4179 44.8665 35.4403 44.5792 35.4403 44.4478V21.5493C35.4403 21.4572 35.4222 21.3659 35.3869 21.2807C35.3517 21.1955 35.3 21.1181 35.2348 21.0529C35.1697 20.9877 35.0923 20.9359 35.0071 20.9006C34.9219 20.8653 34.8307 20.8472 34.7385 20.8472ZM112.129 2.61902C112.13 2.52684 112.112 2.4354 112.078 2.34997C112.043 2.26453 111.992 2.18678 111.927 2.12118C111.863 2.05558 111.785 2.00343 111.7 1.96773C111.615 1.93202 111.524 1.91347 111.432 1.91313H102.977C102.884 1.91352 102.793 1.93209 102.708 1.96777C102.623 2.00346 102.545 2.05556 102.48 2.12111C102.415 2.18666 102.364 2.26437 102.329 2.3498C102.294 2.43523 102.276 2.52671 102.277 2.61902L102.279 18.9598H89.0992V2.61902C89.0992 2.22831 88.7881 1.91313 88.4011 1.91313H79.946C79.7599 1.91431 79.5819 1.98931 79.451 2.12166C79.3201 2.25401 79.2471 2.43289 79.248 2.61902V46.8643C79.248 47.2543 79.5616 47.5721 79.946 47.5721H88.4011C88.7881 47.5721 89.0992 47.2543 89.0992 46.8643V27.9388H102.279L102.256 46.8643C102.256 47.2543 102.569 47.5721 102.957 47.5721H111.431C111.818 47.5721 112.128 47.2543 112.129 46.8643L112.129 2.61902ZM50.6941 8.42504C50.6941 5.38082 48.2531 2.92043 45.2416 2.92043C42.2331 2.92043 39.7902 5.38082 39.7902 8.42504C39.7902 11.4667 42.2331 13.9338 45.2416 13.9338C48.2531 13.9338 50.6941 11.4667 50.6941 8.42504ZM50.0895 37.5311V17.1071C50.0895 16.7197 49.7769 16.4027 49.3899 16.4027H40.9616C40.5746 16.4027 40.2286 16.8009 40.2286 17.189V46.4502C40.2286 47.3097 40.7644 47.5658 41.458 47.5658H49.052C49.8852 47.5658 50.0895 47.1564 50.0895 46.4364V37.5311ZM144.263 16.4689H135.873C135.488 16.4689 135.175 16.786 135.175 17.1767V38.871C135.175 38.871 133.043 40.4309 130.017 40.4309C126.992 40.4309 126.189 39.0578 126.189 36.0959V17.1763C126.189 16.7856 125.877 16.4686 125.491 16.4686H116.976C116.592 16.4686 116.277 16.7856 116.277 17.1763V37.5277C116.277 46.3266 121.181 48.4797 127.927 48.4797C133.462 48.4797 137.924 45.4217 137.924 45.4217C137.924 45.4217 138.136 47.0333 138.233 47.2242C138.329 47.4147 138.579 47.6074 138.85 47.6074L144.267 47.5836C144.651 47.5836 144.966 47.2658 144.966 46.877L144.963 17.1763C144.963 16.7856 144.65 16.4686 144.263 16.4686V16.4689ZM163.887 40.4041C160.976 40.3152 159.002 38.995 159.002 38.995V24.9832C159.002 24.9832 160.949 23.7894 163.339 23.5762C166.361 23.3057 169.272 24.2181 169.272 31.4262C169.272 39.0266 167.958 40.5269 163.887 40.4041ZM167.196 15.475C162.43 15.475 159.189 17.6016 159.189 17.6016V2.61902C159.189 2.22831 158.877 1.91313 158.492 1.91313H150.012C149.92 1.91362 149.829 1.93226 149.744 1.968C149.659 2.00374 149.581 2.05587 149.517 2.12142C149.452 2.18697 149.4 2.26465 149.366 2.35003C149.331 2.43541 149.313 2.52681 149.314 2.61902V46.8643C149.314 47.255 149.627 47.5724 150.013 47.5724H155.896C156.161 47.5724 156.362 47.4355 156.51 47.1963C156.656 46.9585 156.867 45.1567 156.867 45.1567C156.867 45.1567 160.334 48.4421 166.898 48.4421C174.604 48.4421 179.023 44.5334 179.023 30.8953C179.023 17.2574 171.965 15.475 167.196 15.475ZM74.3908 16.3986H68.0482L68.0385 8.01907C68.0385 7.70204 67.8756 7.54352 67.5083 7.54352H58.8653C58.5297 7.54352 58.3488 7.69162 58.3488 8.01461V16.6736C58.3488 16.6736 54.0175 17.7189 53.725 17.8037C53.5788 17.846 53.4504 17.9346 53.359 18.0562C53.2676 18.1778 53.2181 18.3258 53.2182 18.478V23.9193C53.2182 24.31 53.5307 24.6263 53.9174 24.6263H58.3492V37.7164C58.3492 47.4389 65.1688 48.3941 69.7707 48.3941C71.8739 48.3941 74.3893 47.7187 74.8046 47.5654C75.0558 47.4731 75.202 47.2134 75.202 46.9313L75.2091 40.9456C75.2091 40.5548 74.879 40.2385 74.508 40.2385C74.1382 40.2385 73.1926 40.3892 72.2192 40.3892C69.1039 40.3892 68.0478 38.941 68.0478 37.0663V24.6259H74.3908C74.4832 24.6255 74.5746 24.6069 74.6598 24.5711C74.745 24.5353 74.8223 24.4831 74.8873 24.4175C74.9523 24.3518 75.0037 24.274 75.0386 24.1884C75.0735 24.1029 75.0912 24.0113 75.0908 23.9189V17.1038C75.0908 16.713 74.7774 16.3986 74.3908 16.3986Z" fill="#0F0E0F"/>
</svg>
