<svg width="246" height="51" viewBox="0 0 246 51" fill="none" xmlns="http://www.w3.org/2000/svg">
<path fill-rule="evenodd" clip-rule="evenodd" d="M43.8898 0.923584H6.42546C3.20249 0.923584 0.588545 3.53994 0.584154 6.77023V44.2645C0.577921 45.8213 1.19056 47.3166 2.28669 48.4196C3.38283 49.5227 4.87216 50.1427 6.42546 50.1427H43.8898C45.4418 50.1406 46.9291 49.5197 48.0235 48.4168C49.1179 47.314 49.7295 45.82 49.7233 44.2645V6.77023C49.7189 3.54302 47.1097 0.92793 43.8898 0.923584ZM21.7765 36.3743C21.7744 36.8947 21.5656 37.3927 21.1963 37.7585C20.827 38.1242 20.3276 38.3274 19.8084 38.3233H11.6212C10.5504 38.3188 9.6846 37.4476 9.6846 36.3743V11.9541C9.6846 10.8808 10.5504 10.0096 11.6212 10.0052H19.8084C20.8805 10.0095 21.7486 10.8796 21.7529 11.9541L21.7765 36.3743ZM40.6701 25.1623C40.6701 25.6833 40.462 26.1826 40.0922 26.5488C39.7224 26.915 39.2218 27.1175 38.702 27.1113H30.5148C29.4427 27.1069 28.5746 26.2369 28.5703 25.1623V11.9541C28.5746 10.8796 29.4427 10.0095 30.5148 10.0052H38.702C39.7728 10.0096 40.6386 10.8808 40.6386 11.9541L40.6701 25.1623Z" fill="url(#paint0_linear_20_215)"/>
<path d="M102.405 4.52942V14.045H91.1553V50.1427H80.3073V14.045H69.0577V4.52942H102.405Z" fill="#293856"/>
<path d="M116.213 50.1428H106.183V14.6368H116.213V21.4382C118.118 16.6488 121.164 13.8005 126.589 14.1476V24.6653C119.503 24.113 116.213 25.8488 116.213 31.5377V50.1428Z" fill="#293856"/>
<path d="M181.38 50.419C174.806 50.419 170.673 47.2629 170.673 39.7988V0.923706H180.774V38.4101C180.774 40.5641 182.191 41.3295 183.923 41.3295C184.422 41.3396 184.922 41.3159 185.418 41.2585V50.0087C184.097 50.3312 182.738 50.4693 181.38 50.419Z" fill="#293856"/>
<path d="M202.446 50.419C195.873 50.419 191.732 47.2629 191.732 39.7988V0.923706H201.832V38.4101C201.832 40.5641 203.257 41.3295 205.02 41.3295C205.517 41.3398 206.015 41.3161 206.508 41.2585V50.0087C205.18 50.3343 203.813 50.4724 202.446 50.419Z" fill="#293856"/>
<path d="M211.35 32.3742C211.35 21.4068 217.648 13.9032 228.496 13.9032C239.344 13.9032 245.508 21.3831 245.508 32.3742C245.508 43.3652 239.273 50.9793 228.496 50.9793C217.719 50.9793 211.35 43.2706 211.35 32.3742ZM221.182 32.3742C221.182 37.7159 223.418 41.9529 228.496 41.9529C233.573 41.9529 235.683 37.7159 235.683 32.3742C235.683 27.0325 233.518 22.9059 228.496 22.9059C223.473 22.9059 221.182 27.0246 221.182 32.3742Z" fill="#293856"/>
<path d="M140.129 35.5853C142.937 35.8945 145.759 36.0604 148.584 36.0824C156.267 36.0824 162.754 34.0151 162.754 26.5589C162.754 19.3236 156.086 13.8872 148.064 13.8872C137.264 13.8872 130.344 21.738 130.344 32.7054C130.344 44.0909 136.311 50.8528 149.796 50.8528C153.797 50.8855 157.769 50.1738 161.51 48.7541V40.2484C158.046 41.3609 154.15 42.4656 150.151 42.4656C144.782 42.4656 141.042 40.6981 140.129 35.5853ZM147.86 21.6354C150.702 21.6354 152.985 23.5685 152.985 26.2117C152.985 29.6124 149.403 30.6776 145.278 30.6776C143.522 30.6695 141.769 30.5297 140.035 30.2594C140.166 28.6014 140.64 26.9891 141.428 25.5253C142.715 23.163 145.174 21.6816 147.86 21.6512V21.6354Z" fill="#293856"/>
<defs>
<linearGradient id="paint0_linear_20_215" x1="25.1773" y1="50.1427" x2="25.1773" y2="0.923584" gradientUnits="userSpaceOnUse">
<stop stop-color="#0052CC"/>
<stop offset="1" stop-color="#2684FF"/>
</linearGradient>
</defs>
</svg>
