<svg width="65" height="68" viewBox="0 0 65 68" fill="none" xmlns="http://www.w3.org/2000/svg">
<path fill-rule="evenodd" clip-rule="evenodd" d="M41.7269 0.893806L4.71181 3.61757C1.72723 3.8759 0.687012 5.8216 0.687012 8.15414V48.6097C0.687012 50.4274 1.33528 51.9809 2.8946 54.0574L11.5958 65.3383C13.0251 67.1549 14.3238 67.5435 17.053 67.4134L60.0383 64.8196C63.6738 64.5615 64.7138 62.8746 64.7138 60.0221V14.5086C64.7138 13.034 64.13 12.608 62.4089 11.3524C62.3142 11.2834 62.2159 11.2119 62.1143 11.1374L50.2987 2.83898C47.4417 0.765175 46.2723 0.504221 41.7269 0.893806ZM18.0276 13.762C14.5181 13.9988 13.7207 14.0526 11.7276 12.4346L6.65951 8.41513C6.14263 7.89536 6.40185 7.24709 7.69973 7.11837L43.2855 4.52484C46.2717 4.26495 47.8299 5.30405 48.9992 6.2111L55.1029 10.6203C55.3628 10.7494 56.0111 11.5264 55.2314 11.5264L18.4807 13.7316L18.0276 13.762ZM13.9341 59.6324V20.9931C13.9341 19.3077 14.4537 18.5291 16.0112 18.3982L58.2182 15.9354C59.6499 15.8058 60.2982 16.7142 60.2982 18.3982V56.7785C60.2982 58.4654 60.0376 59.8936 57.6991 60.0221L17.3102 62.3575C14.9728 62.486 13.9341 61.709 13.9341 59.6324ZM53.8061 23.0657C54.0651 24.234 53.8061 25.4009 52.635 25.5323L50.6888 25.9198V54.4457C48.9992 55.3532 47.4413 55.8721 46.1429 55.8721C44.0643 55.8721 43.5436 55.2232 41.9868 53.2793L29.2574 33.3109V52.631L33.2853 53.5392C33.2853 53.5392 33.2853 55.8721 30.0357 55.8721L21.0769 56.3914C20.8166 55.8721 21.0769 54.5765 21.9855 54.3168L24.3234 53.6694V28.1247L21.0773 27.8648C20.817 26.6968 21.4653 25.0125 23.2849 24.8818L32.8958 24.2344L46.1429 44.4627V26.5681L42.7655 26.1808C42.5061 24.7526 43.5436 23.7158 44.8426 23.587L53.8061 23.0657Z" fill="black"/>
</svg>
