<svg width="190" height="61" viewBox="0 0 190 61" fill="none" xmlns="http://www.w3.org/2000/svg">
<path d="M9.04456 9.61104C10.1221 9.59782 11.1882 9.8335 12.1597 10.2997C13.1313 10.766 13.9821 11.4502 14.6459 12.299V9.94905H18.5089V27.5257H15.8853C15.7219 27.5279 15.5598 27.4973 15.4085 27.4358C15.2571 27.3743 15.1196 27.2831 15.0041 27.1676C14.8886 27.052 14.7974 26.9145 14.7359 26.7632C14.6743 26.6119 14.6438 26.4497 14.6459 26.2864V25.0953C13.9871 25.9508 13.1377 26.6408 12.1653 27.1103C11.1928 27.5797 10.1243 27.8157 9.04456 27.7994C6.74193 27.732 4.55943 26.7565 2.97329 25.086C1.38715 23.4154 0.526141 21.1853 0.57813 18.8823C0.562498 18.808 0.562498 18.7312 0.57813 18.6569C0.486439 16.3534 1.31023 14.1073 2.8695 12.4093C4.42877 10.7113 6.59674 9.69945 8.8997 9.59494H9.04456V9.61104ZM9.6723 13.1038C8.9811 13.106 8.29709 13.2442 7.65932 13.5106C7.02155 13.7771 6.44251 14.1666 5.95526 14.6568C5.468 15.1471 5.08208 15.7285 4.81953 16.3679C4.55697 17.0073 4.42293 17.6921 4.42504 18.3833C4.41702 18.5012 4.41702 18.6195 4.42504 18.7374C4.36922 19.4254 4.44969 20.1176 4.66184 20.7745C4.87399 21.4313 5.21365 22.0398 5.66136 22.5652C6.10907 23.0906 6.65603 23.5224 7.27092 23.8361C7.88581 24.1497 8.55653 24.3389 9.24467 24.3929C9.9328 24.4469 10.6248 24.3646 11.2811 24.1507C11.9374 23.9368 12.545 23.5955 13.0692 23.1464C13.5933 22.6973 14.0238 22.1492 14.3358 21.5335C14.6477 20.9178 14.8352 20.2466 14.8874 19.5583C14.9035 19.2849 14.9035 19.0108 14.8874 18.7374C14.9809 17.3547 14.527 15.9906 13.6235 14.9396C12.7201 13.8887 11.4397 13.2351 10.0586 13.1199H9.6723V13.1038ZM22.8226 9.90076H26.6856V12.2186C27.2588 11.3383 28.0518 10.6229 28.9862 10.143C29.9206 9.6631 30.964 9.43535 32.0134 9.48227C36.0856 9.48227 38.7253 12.3634 38.7253 16.822V27.397H36.1661C36.0076 27.4013 35.8497 27.3743 35.7016 27.3175C35.5535 27.2608 35.418 27.1754 35.3029 27.0663C35.1878 26.9572 35.0954 26.8264 35.0308 26.6816C34.9663 26.5367 34.9309 26.3805 34.9267 26.222V17.5785C34.9267 14.7939 33.5264 13.1038 31.273 13.1199C28.7137 13.1199 26.75 15.1158 26.75 18.8823V27.5257H24.1586C23.8312 27.5216 23.5184 27.3897 23.2868 27.1581C23.0553 26.9266 22.9234 26.6138 22.9192 26.2864L22.8226 9.90076ZM50.1856 9.56275C51.2605 9.54572 52.3249 9.77642 53.2962 10.237C54.2676 10.6975 55.1199 11.3756 55.787 12.2186V1.1768H59.6339V27.5257H57.139C56.9778 27.53 56.8174 27.502 56.6672 27.4433C56.517 27.3845 56.3801 27.2963 56.2645 27.1838C56.149 27.0712 56.0572 26.9367 55.9945 26.7881C55.9318 26.6395 55.8996 26.4798 55.8996 26.3186V25.0953C55.2366 25.9502 54.3841 26.6395 53.4093 27.1087C52.4345 27.578 51.364 27.8144 50.2822 27.7994C47.9651 27.7155 45.776 26.716 44.1949 25.0202C42.6137 23.3244 41.7697 21.0707 41.8479 18.7535V18.6569C41.796 17.5102 41.9706 16.3645 42.3615 15.2852C42.7524 14.2059 43.3521 13.2142 44.1264 12.3667C44.9006 11.5192 45.8342 10.8326 46.8739 10.3459C47.9135 9.8593 49.0389 9.58223 50.1856 9.53056H50.2983L50.1856 9.56275ZM51.0065 13.0395C50.3153 13.0416 49.6313 13.1798 48.9935 13.4463C48.3558 13.7127 47.7767 14.1022 47.2895 14.5924C46.8022 15.0827 46.4163 15.6641 46.1537 16.3035C45.8912 16.9429 45.7571 17.6277 45.7592 18.3189C45.7512 18.4368 45.7512 18.5551 45.7592 18.673C45.7034 19.361 45.7839 20.0532 45.996 20.7101C46.2082 21.3669 46.5479 21.9755 46.9956 22.5008C47.4433 23.0262 47.9902 23.458 48.6051 23.7717C49.22 24.0853 49.8907 24.2745 50.5789 24.3285C51.267 24.3825 51.959 24.3002 52.6153 24.0863C53.2716 23.8724 53.8792 23.5312 54.4034 23.0821C54.9276 22.6329 55.358 22.0848 55.67 21.4691C55.9819 20.8534 56.1694 20.1822 56.2216 19.4939C56.2377 19.2205 56.2377 18.9464 56.2216 18.673C56.3151 17.2903 55.8611 15.9262 54.9577 14.8753C54.0543 13.8243 52.7739 13.1707 51.3928 13.0556H51.0548L51.0065 13.0395ZM64.2051 9.83638H68.0681V13.0556C68.3883 12.0852 69.008 11.2414 69.8381 10.6456C70.6682 10.0498 71.6659 9.73264 72.6876 9.7398C73.1954 9.74025 73.702 9.78876 74.2007 9.88467V13.8282C73.5781 13.6184 72.926 13.5097 72.2691 13.5062C70.064 13.5062 68.0681 15.3734 68.0681 18.8823V27.4614H65.3801C65.2189 27.4657 65.0584 27.4376 64.9082 27.3789C64.758 27.3201 64.6211 27.2319 64.5056 27.1194C64.3901 27.0068 64.2983 26.8723 64.2356 26.7237C64.1729 26.5751 64.1407 26.4154 64.1407 26.2542L64.2051 9.83638ZM84.5342 27.8799C82.1315 27.8522 79.8374 26.8748 78.153 25.1611C76.4687 23.4474 75.531 21.1368 75.5448 18.734C75.5586 16.3312 76.5228 14.0315 78.2268 12.3373C79.9308 10.6431 82.236 9.69212 84.6388 9.69212C87.0417 9.69212 89.3469 10.6431 91.0508 12.3373C92.7548 14.0315 93.719 16.3312 93.7328 18.734C93.7467 21.1368 92.809 23.4474 91.1246 25.1611C89.4403 26.8748 87.1461 27.8522 84.7434 27.8799H84.5342ZM84.5342 24.2905C85.9301 24.2905 87.2689 23.7359 88.256 22.7489C89.243 21.7618 89.7976 20.423 89.7976 19.0271V18.7374C89.7976 17.3372 89.2413 15.9944 88.2512 15.0043C87.2612 14.0142 85.9183 13.458 84.5181 13.458C83.1179 13.458 81.7751 14.0142 80.785 15.0043C79.7949 15.9944 79.2387 17.3372 79.2387 18.7374C79.1997 19.434 79.2995 20.1314 79.5325 20.789C79.7655 21.4467 80.1268 22.0515 80.5956 22.5682C81.0644 23.0849 81.6313 23.5033 82.2632 23.7989C82.8952 24.0946 83.5796 24.2617 84.2767 24.2905H84.6147H84.5342ZM98.763 6.13433C98.2505 6.12792 97.7514 5.9697 97.3288 5.67966C96.9063 5.38963 96.5792 4.9808 96.389 4.50489C96.1988 4.02897 96.154 3.50734 96.2602 3.00595C96.3664 2.50456 96.6189 2.04593 96.9858 1.68806C97.3527 1.33018 97.8175 1.08913 98.3213 0.995381C98.8252 0.901635 99.3456 0.959405 99.8166 1.16139C100.288 1.36337 100.688 1.70049 100.968 2.13012C101.247 2.55976 101.393 3.0626 101.387 3.57509C101.378 4.25704 101.105 4.90898 100.624 5.39273C100.143 5.87648 99.4931 6.15402 98.8112 6.16652L98.763 6.13433ZM96.8797 9.98124H100.743V27.5257H98.103C97.938 27.5278 97.7743 27.4961 97.622 27.4324C97.4698 27.3687 97.3322 27.2745 97.2178 27.1555C96.9903 26.9234 96.8632 26.6113 96.8636 26.2864L96.8797 9.98124ZM112.364 9.64323C113.463 9.61617 114.553 9.84834 115.546 10.3209C116.539 10.7935 117.406 11.4932 118.078 12.3634V1.1768H121.941V27.5257H119.205C119.041 27.5279 118.879 27.4973 118.728 27.4358C118.577 27.3743 118.439 27.2831 118.324 27.1676C118.208 27.052 118.117 26.9145 118.055 26.7632C117.994 26.6119 117.963 26.4497 117.965 26.2864V25.0953C117.307 25.9508 116.457 26.6408 115.485 27.1103C114.512 27.5797 113.444 27.8157 112.364 27.7994C111.216 27.766 110.086 27.5068 109.038 27.0365C107.991 26.5662 107.046 25.894 106.258 25.0584C105.47 24.2228 104.855 23.2402 104.447 22.1666C104.039 21.0931 103.847 19.9497 103.881 18.8018C103.881 18.8018 103.881 18.7052 103.881 18.6569C103.83 17.5102 104.004 16.3645 104.395 15.2852C104.786 14.2059 105.386 13.2142 106.16 12.3667C106.934 11.5192 107.868 10.8326 108.907 10.3459C109.947 9.8593 111.072 9.58223 112.219 9.53056H112.348L112.364 9.64323ZM113.04 13.0395C112.349 13.0562 111.668 13.2089 111.035 13.489C110.403 13.769 109.832 14.1709 109.355 14.6717C108.879 15.1724 108.505 15.7622 108.256 16.4073C108.008 17.0525 107.888 17.7403 107.905 18.4316C107.897 18.5119 107.897 18.5927 107.905 18.673C107.85 19.361 107.93 20.0532 108.142 20.7101C108.354 21.3669 108.694 21.9755 109.142 22.5008C109.589 23.0262 110.136 23.458 110.751 23.7717C111.366 24.0853 112.037 24.2745 112.725 24.3285C113.413 24.3825 114.105 24.3002 114.761 24.0863C115.418 23.8724 116.025 23.5312 116.55 23.0821C117.074 22.6329 117.504 22.0848 117.816 21.4691C118.128 20.8534 118.316 20.1822 118.368 19.4939C118.384 19.2205 118.384 18.9464 118.368 18.673C118.461 17.2903 118.007 15.9262 117.104 14.8753C116.201 13.8243 114.92 13.1707 113.539 13.0556H113.088L113.04 13.0395ZM42.8137 54.8404V46.2774H39.2082V42.8007H42.8942V37.8754H46.7733V42.8007H51.763V46.2774H46.6928V54.1966C46.6928 56.4339 47.6586 57.2065 49.6705 57.2065C50.3849 57.2332 51.0972 57.1126 51.763 56.8524V60.3291C50.8244 60.6147 49.8466 60.7505 48.8657 60.7315C48.1438 60.805 47.4145 60.7354 46.7195 60.5267C46.0245 60.318 45.3774 59.9744 44.8153 59.5155C44.2532 59.0565 43.7871 58.4913 43.4437 57.852C43.1002 57.2128 42.8861 56.5121 42.8137 55.7901C42.7815 55.4744 42.7815 55.1562 42.8137 54.8404ZM103.254 51.6213C103.254 49.7844 103.798 47.9888 104.819 46.4615C105.839 44.9342 107.29 43.7438 108.987 43.0409C110.684 42.338 112.551 42.154 114.353 42.5124C116.154 42.8708 117.809 43.7553 119.108 45.0541C120.407 46.353 121.292 48.0078 121.65 49.8094C122.008 51.611 121.824 53.4783 121.121 55.1754C120.418 56.8724 119.228 58.3229 117.701 59.3434C116.173 60.3639 114.378 60.9086 112.541 60.9086C111.338 60.9235 110.144 60.7013 109.028 60.2547C107.911 59.8082 106.893 59.146 106.032 58.306C105.171 57.466 104.484 56.4646 104.01 55.3591C103.536 54.2535 103.285 53.0654 103.27 51.8627V51.6213H103.254ZM117.853 51.6213C117.815 50.1829 117.212 48.8174 116.174 47.8203C115.137 46.8233 113.748 46.275 112.31 46.294C110.871 46.3131 109.497 46.898 108.487 47.9221C107.476 48.9463 106.909 50.3272 106.909 51.7661C106.909 53.205 107.476 54.586 108.487 55.6101C109.497 56.6343 110.871 57.2192 112.31 57.2382C113.748 57.2573 115.137 56.7089 116.174 55.7119C117.212 54.7149 117.815 53.3494 117.853 51.911V51.6213ZM27.7158 55.1141C27.8617 55.9418 28.3257 56.6796 29.0084 57.1699C29.6911 57.6602 30.5385 57.8639 31.3695 57.7377C33.1079 57.7377 34.2507 57.0295 34.2507 55.8545C34.2507 54.6795 33.4781 53.9713 31.6271 53.5045L28.7137 52.7319C27.4358 52.5408 26.2709 51.8918 25.4359 50.9058C24.6009 49.9197 24.1527 48.6639 24.1747 47.372C24.1747 44.3942 26.7983 42.3983 30.774 42.3983C34.7497 42.3983 37.2123 44.4908 37.5504 47.7261H33.7034C33.5562 47.0738 33.183 46.4946 32.6498 46.091C32.1166 45.6875 31.4578 45.4855 30.7901 45.5209C29.261 45.5209 28.1986 46.197 28.1986 47.3237C28.1986 48.4504 28.9873 49.062 30.5969 49.4805L33.5747 50.2692C36.7938 51.0901 38.3069 52.8606 38.3069 55.6291C38.3069 59.0093 35.474 60.8764 31.3534 60.8764C29.451 60.9243 27.5834 60.3601 26.0257 59.2668C25.3444 58.8024 24.7814 58.1849 24.3817 57.4638C23.982 56.7426 23.7567 55.9379 23.724 55.1141H27.7158ZM66.2815 58.0918C65.7512 58.965 65.0006 59.6833 64.105 60.1749C63.2095 60.6665 62.2005 60.9139 61.1791 60.8925C57.1068 60.8925 54.5798 57.9469 54.5798 53.4079V42.8007H58.5233V52.7641C58.5233 55.6774 59.7627 57.287 62.0322 57.287C64.6236 57.287 66.362 55.1624 66.362 51.4764V42.8007H70.2572V60.5062H66.2815V58.0918ZM87.6407 58.0918C86.986 58.9394 86.1475 59.6274 85.1885 60.1042C84.2294 60.5809 83.1747 60.8339 82.1037 60.8442C80.9601 60.8232 79.8319 60.5772 78.7834 60.1201C77.7349 59.6631 76.7867 59.0039 75.993 58.1803C75.1993 57.3567 74.5757 56.3849 74.1577 55.3202C73.7397 54.2555 73.5355 53.119 73.5568 51.9754C73.5489 51.8951 73.5489 51.8142 73.5568 51.7339C73.4983 50.5943 73.6652 49.4543 74.0479 48.3793C74.4306 47.3042 75.0217 46.3153 75.7872 45.469C76.5527 44.6227 77.4777 43.9358 78.5091 43.4475C79.5405 42.9593 80.6581 42.6793 81.7979 42.6237H82.0876C83.1682 42.616 84.2362 42.8556 85.2099 43.3244C86.1836 43.7931 87.0371 44.4784 87.7051 45.3278V34.1894H91.552V60.5062H87.6407V58.0918ZM78.8846 55.6774C79.3578 56.2075 79.9421 56.6266 80.596 56.9048C81.2498 57.183 81.957 57.3135 82.6671 57.287C83.3727 57.3155 84.0757 57.1858 84.7247 56.9073C85.3736 56.6288 85.952 56.2085 86.4174 55.6774C87.3754 54.5555 87.9016 53.1287 87.9016 51.6535C87.9016 50.1782 87.3754 48.7514 86.4174 47.6295C85.9477 47.1037 85.3686 46.6871 84.7206 46.409C84.0727 46.1309 83.3718 45.9981 82.6671 46.0199C81.9543 45.991 81.244 46.1203 80.5872 46.3986C79.9304 46.6769 79.3434 47.0973 78.8685 47.6295C77.9278 48.7603 77.4142 50.1855 77.4171 51.6564C77.4201 53.1272 77.9394 54.5504 78.8846 55.6774ZM97.7972 33.8997C98.4471 33.951 99.0538 34.2455 99.4963 34.7243C99.9388 35.2031 100.185 35.8311 100.185 36.4831C100.185 37.1351 99.9388 37.7631 99.4963 38.2419C99.0538 38.7207 98.4471 39.0151 97.7972 39.0665C97.3437 39.0673 96.8978 38.9507 96.5028 38.7278C96.1079 38.5049 95.7775 38.1835 95.5438 37.7949C95.307 37.3983 95.182 36.945 95.182 36.4831C95.182 36.0212 95.307 35.5679 95.5438 35.1713C95.7775 34.7827 96.1079 34.4612 96.5028 34.2384C96.8978 34.0155 97.3437 33.8988 97.7972 33.8997ZM99.8092 42.8812V60.5062H95.9462V42.8812H99.8092Z" fill="black"/>
<path d="M158.318 8.53247H144.717C143.396 8.53673 142.131 9.06431 141.199 9.9996C140.267 10.9349 139.743 12.2016 139.743 13.5222C139.724 14.1564 139.83 14.7882 140.055 15.3814C140.28 15.9747 140.619 16.5178 141.054 16.9797C141.489 17.4416 142.011 17.8132 142.59 18.0734C143.168 18.3335 143.793 18.4771 144.427 18.4958H158.414L158.318 8.53247Z" fill="#073042"/>
<path d="M189.141 52.8767H144.701C143.386 52.8682 142.127 52.341 141.199 51.4096C140.271 50.4783 139.747 49.2181 139.743 47.9031V13.4901C139.739 14.1454 139.864 14.7951 140.111 15.4021C140.357 16.0091 140.721 16.5615 141.182 17.0278C141.642 17.4942 142.19 17.8653 142.794 18.1199C143.397 18.3746 144.045 18.5078 144.701 18.512H181.898C181.898 18.512 189.141 17.8843 189.141 23.3408V52.8767Z" fill="#4285F4"/>
<path d="M168.41 35.2516C169.151 34.6939 169.7 33.9199 169.982 33.0365C170.264 32.1531 170.264 31.204 169.983 30.3203C169.702 29.4366 169.154 28.6621 168.413 28.1038C167.673 27.5454 166.778 27.2309 165.851 27.2036H165.996C166.257 27.1713 166.522 27.1713 166.784 27.2036V24.4351C166.789 24.2786 166.753 24.1236 166.68 23.9853C166.606 23.847 166.498 23.7302 166.366 23.6464C166.231 23.5684 166.078 23.5281 165.922 23.5296C165.766 23.5311 165.614 23.5744 165.481 23.655C165.347 23.7356 165.238 23.8506 165.165 23.9878C165.091 24.125 165.055 24.2795 165.062 24.4351V27.2519C164.479 27.342 163.919 27.5466 163.415 27.8539C162.912 28.1611 162.474 28.565 162.127 29.0422C161.779 29.5194 161.53 30.0606 161.393 30.6346C161.256 31.2085 161.234 31.8039 161.328 32.3865C161.416 32.965 161.617 33.5204 161.921 34.0205C162.225 34.5205 162.625 34.9554 163.098 35.2998L154.906 52.8122H160.249L164.032 44.7642C164.189 44.4297 164.438 44.1468 164.751 43.9487C165.063 43.7505 165.425 43.6453 165.794 43.6453C166.164 43.6453 166.526 43.7505 166.838 43.9487C167.15 44.1468 167.4 44.4297 167.557 44.7642L171.452 52.8122H176.86L168.41 35.2516ZM165.674 34.4629C165.31 34.4607 164.951 34.387 164.615 34.246C164.28 34.1049 163.976 33.8992 163.721 33.6406C163.465 33.382 163.263 33.0757 163.126 32.739C162.989 32.4023 162.919 32.0418 162.921 31.6783C162.928 31.1387 163.092 30.613 163.394 30.1656C163.696 29.7182 164.122 29.3687 164.619 29.1601C165.117 28.9515 165.664 28.8928 166.195 28.9913C166.725 29.0898 167.216 29.3412 167.605 29.7146C167.998 30.099 168.268 30.5918 168.38 31.1302C168.492 31.6686 168.442 32.2281 168.234 32.7375C168.027 33.2469 167.673 33.6831 167.217 33.9904C166.761 34.2976 166.224 34.4621 165.674 34.4629Z" fill="#3870B2"/>
<path d="M155.34 10.9791H174.414V14.4719H155.34V10.9791Z" fill="white"/>
<path d="M164.193 28.942C164.736 28.9483 165.266 29.1156 165.715 29.4226C166.163 29.7296 166.511 30.1626 166.714 30.6669C166.917 31.1713 166.966 31.7245 166.855 32.2567C166.744 32.7889 166.477 33.2763 166.09 33.6574C165.702 34.0384 165.21 34.2961 164.676 34.3979C164.142 34.4997 163.589 34.441 163.089 34.2293C162.588 34.0176 162.161 33.6624 161.862 33.2084C161.563 32.7544 161.405 32.2219 161.408 31.6783C161.423 30.9527 161.717 30.2608 162.229 29.7468C162.487 29.4901 162.794 29.2868 163.131 29.1487C163.468 29.0106 163.829 28.9404 164.193 28.942ZM165.287 27.3324V24.4351C165.292 24.2786 165.256 24.1236 165.182 23.9853C165.109 23.847 165.001 23.7302 164.869 23.6464C164.734 23.5684 164.581 23.5281 164.425 23.5296C164.269 23.5311 164.117 23.5744 163.983 23.655C163.85 23.7356 163.741 23.8506 163.667 23.9878C163.594 24.125 163.558 24.2795 163.565 24.4351V27.2519C162.982 27.342 162.422 27.5466 161.918 27.8539C161.415 28.1611 160.977 28.565 160.629 29.0422C160.282 29.5194 160.033 30.0606 159.896 30.6346C159.759 31.2085 159.737 31.8039 159.831 32.3865C159.919 32.965 160.12 33.5204 160.424 34.0205C160.728 34.5205 161.128 34.9554 161.601 35.2998L151.316 57.4317C151.121 57.8201 151.035 58.2539 151.066 58.6873C151.097 59.1208 151.245 59.5378 151.493 59.8943C151.738 60.2524 152.075 60.5382 152.468 60.7222C152.861 60.9061 153.296 60.9815 153.728 60.9404C154.16 60.8993 154.573 60.7433 154.925 60.4886C155.276 60.2339 155.553 59.8898 155.726 59.4919L162.583 44.7642C162.74 44.4297 162.99 44.1468 163.302 43.9487C163.614 43.7505 163.976 43.6453 164.346 43.6453C164.715 43.6453 165.077 43.7505 165.389 43.9487C165.702 44.1468 165.951 44.4297 166.108 44.7642L173.142 59.4115C173.424 59.992 173.925 60.4369 174.534 60.6482C175.144 60.8595 175.813 60.8199 176.393 60.5382C176.974 60.2564 177.419 59.7556 177.63 59.1458C177.841 58.5361 177.802 57.8674 177.52 57.2868L166.929 35.2516C167.583 34.7324 168.081 34.0422 168.367 33.2576C168.653 32.473 168.716 31.6245 168.549 30.8061C168.383 29.9878 167.993 29.2316 167.423 28.6213C166.852 28.011 166.125 27.5704 165.319 27.3485" fill="#073042"/>
<path d="M171.597 14.0535C171.428 14.0577 171.26 14.0287 171.102 13.9679C170.944 13.9071 170.799 13.8158 170.677 13.6992C170.554 13.5826 170.456 13.443 170.387 13.2884C170.319 13.1337 170.281 12.9671 170.277 12.798C170.27 12.6213 170.301 12.4451 170.367 12.2813C170.434 12.1175 170.535 11.9699 170.663 11.8483C170.907 11.6065 171.237 11.4709 171.581 11.4709C171.924 11.4709 172.254 11.6065 172.498 11.8483C172.735 12.0898 172.873 12.4115 172.885 12.7497C172.885 12.9188 172.851 13.0862 172.787 13.2425C172.722 13.3987 172.627 13.5406 172.507 13.6602C172.388 13.7798 172.246 13.8746 172.09 13.9393C171.933 14.0041 171.766 14.0374 171.597 14.0374V14.0535ZM157.288 14.0374C157.119 14.0395 156.951 14.0083 156.794 13.9455C156.637 13.8828 156.493 13.7897 156.372 13.6716C156.251 13.5535 156.155 13.4128 156.088 13.2573C156.021 13.1019 155.986 12.9349 155.984 12.7658C155.98 12.5919 156.013 12.4191 156.079 12.2584C156.146 12.0977 156.245 11.9526 156.37 11.8322C156.478 11.6983 156.611 11.5873 156.762 11.5057C156.913 11.424 157.079 11.3735 157.25 11.357C157.421 11.3405 157.594 11.3584 157.758 11.4096C157.922 11.4608 158.074 11.5443 158.205 11.6552C158.464 11.8869 158.62 12.2111 158.641 12.5576C158.662 12.904 158.546 13.2448 158.318 13.5062L158.141 13.6833C157.895 13.9224 157.566 14.0554 157.223 14.0535L157.288 14.0374ZM171.999 6.24696L174.575 1.77231C174.639 1.65499 174.658 1.51815 174.629 1.38765C174.599 1.25715 174.522 1.14204 174.414 1.06409C174.306 1.01498 174.186 1.00418 174.071 1.03347C173.957 1.06277 173.856 1.13039 173.786 1.22505L171.098 5.78018C169.008 4.84126 166.742 4.35582 164.45 4.35582C162.159 4.35582 159.893 4.84126 157.803 5.78018L155.179 1.22505C155.132 1.14289 155.064 1.07448 154.982 1.02651C154.9 0.978539 154.807 0.952662 154.712 0.951416C154.618 0.956931 154.527 0.984601 154.446 1.03216C154.365 1.07972 154.296 1.14582 154.246 1.22505C154.198 1.30824 154.172 1.40261 154.172 1.49868C154.172 1.59474 154.198 1.68911 154.246 1.77231L156.837 6.24696C154.603 7.46978 152.709 9.2301 151.327 11.3687C149.944 13.5074 149.116 15.9569 148.918 18.4959H179.983C179.785 15.9569 178.957 13.5074 177.574 11.3687C176.192 9.2301 174.298 7.46978 172.064 6.24696" fill="#3DDC84"/>
<path d="M184.683 28.0408H182.639C182.582 28.059 182.534 28.0962 182.501 28.1461C182.469 28.1959 182.455 28.2554 182.462 28.3144V60.5062C182.461 60.5718 182.486 60.635 182.531 60.6828C182.576 60.7307 182.638 60.7596 182.703 60.7637H184.812C185.995 60.7595 187.13 60.2861 187.965 59.4474C188.801 58.6088 189.27 57.473 189.27 56.2891V23.5662C189.27 24.7529 188.799 25.8911 187.959 26.7302C187.12 27.5694 185.982 28.0408 184.795 28.0408H184.683Z" fill="#073042"/>
</svg>
